<svg id="Layer_1" data-name="Layer 1" xmlns="http://www.w3.org/2000/svg" xmlns:xlink="http://www.w3.org/1999/xlink" viewBox="0 0 1309 398"><defs><style>.cls-1{fill:#505050;}.cls-2{fill:#fff;}.cls-3{fill:#7cbf4b;}.cls-4{fill:#2d2d2d;}.cls-5,.cls-6,.cls-9{fill:none;stroke:#cfcfcf;stroke-width:6px;}.cls-5,.cls-6{stroke-linecap:round;stroke-linejoin:round;}.cls-6{stroke-dasharray:0 13.87;}.cls-7{fill:#cfcfcf;}.cls-8{opacity:0.3;}.cls-9{stroke-miterlimit:10;}</style><symbol id="Users" data-name="Users" viewBox="0 0 734.16 856.37"><path class="cls-1" d="M363,611.47l-.44-.27a131.89,131.89,0,0,1-65.14-113.58c0-1.39.17-2.73.21-4.11A299.19,299.19,0,0,0,181.3,470c-65.86,0-127.06,21.44-178,58.16L2.22,529C1,529.89,0,537,0,544.85v127A14.24,14.24,0,0,0,14.2,686H217.29A36.51,36.51,0,0,1,229,670.95l.29-.22.29-.21,1.12-.81a341.31,341.31,0,0,1,131.93-58.15Z"/><path class="cls-1" d="M731.94,298.14l-1.13-.81c-50.9-36.72-112.1-58.16-178-58.16s-127.06,21.44-178,58.16l-1.13.81c-1.22.92-2.22,8.06-2.22,15.87v65.21a130.92,130.92,0,0,1,57.86-13.55c57.9,0,107.09,37.54,124.81,89.51H720a14.24,14.24,0,0,0,14.2-14.2V314C734.16,306.2,733.16,299.06,731.94,298.14Z"/><circle class="cls-1" cx="552.85" cy="96.44" r="96.44"/><circle class="cls-1" cx="181.3" cy="327.28" r="96.44"/><path class="cls-1" d="M341.93,538.18c.84,1.83,1.72,3.64,2.68,5.41a96.79,96.79,0,0,0,16.61,22.22c.44.44.94.83,1.39,1.26a96.68,96.68,0,0,0,20.84,15.35q2.56,1.39,5.22,2.63a96.68,96.68,0,0,0,81.5,0q2.65-1.24,5.22-2.63a96.79,96.79,0,0,0,22.22-16.61q3.27-3.27,6.22-6.85A96.46,96.46,0,0,0,383.44,412.82c-2.09,1.14-4.12,2.37-6.1,3.68s-3.91,2.68-5.8,4.1c-1.16.87-2.36,1.68-3.48,2.6q-3.57,2.95-6.85,6.22a96.78,96.78,0,0,0-16.61,22.22q-.7,1.28-1.35,2.59a97.58,97.58,0,0,0-1.33,83.94Z"/><path class="cls-1" d="M607.37,698.51q-9.54-6.88-19.56-13a310.79,310.79,0,0,0-31-16.72A303.76,303.76,0,0,0,524,655.66q-11.21-3.73-22.76-6.59a299.15,299.15,0,0,0-138.64-1.14c-1.67.38-3.36.73-5,1.14q-11.54,2.85-22.76,6.59A303.78,303.78,0,0,0,302,668.75a310.77,310.77,0,0,0-31,16.72l-.87.56q-9.55,5.91-18.69,12.48l-1.13.81c-1.22.92-2.22,8.06-2.22,15.87v127a14.24,14.24,0,0,0,14.2,14.2h334.2a14.24,14.24,0,0,0,14.2-14.2v-127c0-7.81-1-15-2.22-15.87Z"/></symbol><symbol id="SMS" data-name="SMS" viewBox="0 0 666 541.64"><path class="cls-2" d="M610.17,22.5H55.83A33.33,33.33,0,0,0,22.5,55.83V325.17A33.33,33.33,0,0,0,55.83,358.5H170.5V519.14L331.14,358.5h279a33.33,33.33,0,0,0,33.33-33.33V55.83A33.33,33.33,0,0,0,610.17,22.5Z"/><path class="cls-1" d="M170.5,541.64a22.5,22.5,0,0,1-22.5-22.5V381H55.83A55.89,55.89,0,0,1,0,325.17V55.83A55.89,55.89,0,0,1,55.83,0H610.17A55.89,55.89,0,0,1,666,55.83V325.17A55.89,55.89,0,0,1,610.17,381H340.46l-154,154A22.5,22.5,0,0,1,170.5,541.64ZM55.83,45A10.84,10.84,0,0,0,45,55.83V325.17A10.84,10.84,0,0,0,55.83,336H170.5A22.5,22.5,0,0,1,193,358.5V464.82L315.23,342.59A22.5,22.5,0,0,1,331.14,336h279A10.84,10.84,0,0,0,621,325.17V55.83A10.84,10.84,0,0,0,610.17,45Z"/><circle class="cls-1" cx="189.19" cy="191" r="47.69"/><circle class="cls-1" cx="334" cy="191" r="47.69"/><circle class="cls-1" cx="478.81" cy="191" r="47.69"/></symbol><symbol id="Confirm_page-5" data-name="Confirm page" viewBox="0 0 521.7 844.67"><rect class="cls-1" x="0.5" y="0.5" width="520.7" height="843.67"/><path class="cls-1" d="M521.7,844.67H0V0H521.7ZM1,843.67H520.7V1H1Z"/><rect class="cls-2" x="26.24" y="98.3" width="471.46" height="716.86"/><circle class="cls-2" cx="47.12" cy="51.4" r="21.39"/><circle class="cls-2" cx="106.69" cy="51.4" r="21.39"/><circle class="cls-2" cx="169.11" cy="51.4" r="21.39"/><rect class="cls-3" x="26.2" y="97.79" width="472.09" height="97.38"/><rect class="cls-1" x="97.62" y="571.96" width="313.45" height="18"/><line x1="200.26" y1="466.76" x2="381.85" y2="285.17"/><polygon class="cls-3" points="217.94 484.44 182.58 449.08 364.17 267.49 399.52 302.85 217.94 484.44"/><line x1="150.19" y1="381.31" x2="235.64" y2="466.76"/><polygon class="cls-3" points="217.96 484.44 132.52 398.99 167.87 363.63 253.32 449.08 217.96 484.44"/><rect class="cls-1" x="97.62" y="621.39" width="313.45" height="18"/><rect class="cls-1" x="97.62" y="669.18" width="164.58" height="18"/></symbol><symbol id="Envelope-2" data-name="Envelope" viewBox="0 0 796.95 505.11"><rect class="cls-2" x="23.45" y="22.5" width="750.04" height="460.11"/><path class="cls-1" d="M773.49,505.11h-750A22.5,22.5,0,0,1,1,482.61V22.5A22.5,22.5,0,0,1,23.45,0h750A22.5,22.5,0,0,1,796,22.5V482.61A22.5,22.5,0,0,1,773.49,505.11ZM46,460.11H751V45H46Z"/><polygon class="cls-2" points="398.47 135.95 22.5 482.61 774.44 482.61 398.47 135.95"/><path class="cls-1" d="M774.44,505.11H22.5a22.5,22.5,0,0,1-15.25-39l376-346.66a22.5,22.5,0,0,1,30.5,0l376,346.66a22.5,22.5,0,0,1-15.25,39Zm-694.35-45H716.85L398.47,166.56Z"/><polygon class="cls-2" points="398.47 320.57 774.44 22.5 22.5 22.5 398.47 320.57"/><path class="cls-1" d="M398.47,343.07a22.46,22.46,0,0,1-14-4.87L8.52,40.13A22.5,22.5,0,0,1,22.5,0H774.44a22.5,22.5,0,0,1,14,40.13l-376,298.07A22.46,22.46,0,0,1,398.47,343.07ZM87.1,45,398.47,291.86,709.85,45Z"/></symbol></defs><title>actionable-reminders-journey</title><g id="Content_page-2" data-name="Content page"><path class="cls-4" d="M245,305.35v5.89a.36.36,0,0,1-.08.23.59.59,0,0,1-.28.17,2.79,2.79,0,0,1-.52.1,8.74,8.74,0,0,1-1.65,0,2.93,2.93,0,0,1-.52-.1.55.55,0,0,1-.28-.17.38.38,0,0,1-.08-.23v-5.89L237,296.22a4.1,4.1,0,0,1-.32-.74.37.37,0,0,1,.08-.4.94.94,0,0,1,.55-.17c.27,0,.64,0,1.11,0s.71,0,1,0a2.37,2.37,0,0,1,.56.1.67.67,0,0,1,.3.19,1.52,1.52,0,0,1,.19.3l1.86,4.12q.27.59.54,1.26t.54,1.38h0q.25-.7.5-1.36t.5-1.26l1.84-4.09a1.06,1.06,0,0,1,.16-.33.69.69,0,0,1,.29-.2,1.87,1.87,0,0,1,.53-.1c.22,0,.52,0,.89,0s.87,0,1.15,0a1,1,0,0,1,.56.17.38.38,0,0,1,.07.41,4.54,4.54,0,0,1-.31.74Z"/><path class="cls-4" d="M261.37,305.37a8.82,8.82,0,0,1-.39,2.69,5.68,5.68,0,0,1-1.18,2.1,5.22,5.22,0,0,1-2,1.36A7.43,7.43,0,0,1,255,312a7.61,7.61,0,0,1-2.68-.43,4.8,4.8,0,0,1-1.89-1.24,5.1,5.1,0,0,1-1.11-2,9.32,9.32,0,0,1-.36-2.72,8.74,8.74,0,0,1,.4-2.7,5.67,5.67,0,0,1,1.18-2.1,5.29,5.29,0,0,1,2-1.35,7.38,7.38,0,0,1,2.78-.48,7.78,7.78,0,0,1,2.69.42,4.72,4.72,0,0,1,1.88,1.24,5.15,5.15,0,0,1,1.11,2A9.4,9.4,0,0,1,261.37,305.37Zm-3.35.13a8.53,8.53,0,0,0-.14-1.57,3.7,3.7,0,0,0-.46-1.25,2.3,2.3,0,0,0-.86-.83,2.76,2.76,0,0,0-1.35-.3,2.86,2.86,0,0,0-1.27.27,2.28,2.28,0,0,0-.89.78,3.71,3.71,0,0,0-.52,1.23,6.91,6.91,0,0,0-.17,1.64,8.11,8.11,0,0,0,.14,1.57,3.89,3.89,0,0,0,.46,1.25,2.19,2.19,0,0,0,.86.82,2.82,2.82,0,0,0,1.35.29,2.9,2.9,0,0,0,1.28-.26,2.29,2.29,0,0,0,.89-.77,3.55,3.55,0,0,0,.52-1.22A7.2,7.2,0,0,0,258,305.5Z"/><path class="cls-4" d="M274.9,311.26a.39.39,0,0,1-.07.23.46.46,0,0,1-.23.16,1.75,1.75,0,0,1-.43.1,5.67,5.67,0,0,1-.67,0,6,6,0,0,1-.69,0,1.65,1.65,0,0,1-.42-.1.47.47,0,0,1-.22-.16.4.4,0,0,1-.06-.23v-1.33a7.34,7.34,0,0,1-1.95,1.55,4.38,4.38,0,0,1-2.05.52,4.6,4.6,0,0,1-2-.39,3.44,3.44,0,0,1-1.31-1.06,4.24,4.24,0,0,1-.71-1.56,9.6,9.6,0,0,1-.21-2.21v-7.07a.37.37,0,0,1,.07-.23.53.53,0,0,1,.26-.16,2.33,2.33,0,0,1,.5-.1c.21,0,.47,0,.78,0s.58,0,.79,0a2.31,2.31,0,0,1,.5.1.58.58,0,0,1,.27.16.35.35,0,0,1,.08.23v6.52a6.26,6.26,0,0,0,.12,1.38,2.42,2.42,0,0,0,.36.82,1.63,1.63,0,0,0,.61.53,1.88,1.88,0,0,0,.86.19,2.13,2.13,0,0,0,1.25-.45,7.47,7.47,0,0,0,1.34-1.32v-7.68a.37.37,0,0,1,.07-.23.53.53,0,0,1,.26-.16,2.31,2.31,0,0,1,.5-.1q.31,0,.79,0a7.9,7.9,0,0,1,.79,0,2.2,2.2,0,0,1,.49.1.58.58,0,0,1,.26.16.35.35,0,0,1,.08.23Z"/><path class="cls-4" d="M285.59,300.79q0,.47,0,.76a2.33,2.33,0,0,1-.08.47.46.46,0,0,1-.14.23.34.34,0,0,1-.21.07.72.72,0,0,1-.23,0l-.29-.1-.36-.1a1.87,1.87,0,0,0-.43,0,1.44,1.44,0,0,0-.54.11,2.28,2.28,0,0,0-.56.34,4.15,4.15,0,0,0-.61.62,9.91,9.91,0,0,0-.68,1v7.2a.35.35,0,0,1-.08.23.57.57,0,0,1-.27.16,2.31,2.31,0,0,1-.5.1,9.4,9.4,0,0,1-1.58,0,2.31,2.31,0,0,1-.5-.1.56.56,0,0,1-.27-.16.35.35,0,0,1-.08-.23V299.72a.39.39,0,0,1,.07-.23.48.48,0,0,1,.23-.16,1.87,1.87,0,0,1,.43-.1,5.7,5.7,0,0,1,.67,0,6,6,0,0,1,.69,0,1.55,1.55,0,0,1,.42.1.48.48,0,0,1,.21.16.4.4,0,0,1,.06.23v1.44a9.22,9.22,0,0,1,.85-1.07,4.87,4.87,0,0,1,.76-.67,2.4,2.4,0,0,1,.73-.34,2.79,2.79,0,0,1,.72-.1l.36,0,.4.07.36.1a.71.71,0,0,1,.23.12.39.39,0,0,1,.1.14,1.15,1.15,0,0,1,.06.21,3.32,3.32,0,0,1,0,.41C285.58,300.23,285.59,300.48,285.59,300.79Z"/><path class="cls-4" d="M297.1,295.81a1.83,1.83,0,0,1-.4,1.36,3.18,3.18,0,0,1-3,0,1.78,1.78,0,0,1-.38-1.31,1.87,1.87,0,0,1,.4-1.37,3.13,3.13,0,0,1,3,0A1.78,1.78,0,0,1,297.1,295.81Zm-.25,15.46a.35.35,0,0,1-.08.23.57.57,0,0,1-.27.16,2.31,2.31,0,0,1-.5.1,9.4,9.4,0,0,1-1.58,0,2.31,2.31,0,0,1-.5-.1.56.56,0,0,1-.27-.16.35.35,0,0,1-.08-.23V299.74a.35.35,0,0,1,.08-.23.61.61,0,0,1,.27-.17,2.23,2.23,0,0,1,.5-.11,8,8,0,0,1,1.58,0,2.23,2.23,0,0,1,.5.11.61.61,0,0,1,.27.17.35.35,0,0,1,.08.23Z"/><path class="cls-4" d="M311.13,311.26a.35.35,0,0,1-.08.23.57.57,0,0,1-.26.16,2.22,2.22,0,0,1-.5.1c-.21,0-.47,0-.78,0s-.58,0-.8,0a2.2,2.2,0,0,1-.5-.1.56.56,0,0,1-.26-.16.35.35,0,0,1-.08-.23v-6.59a5.56,5.56,0,0,0-.12-1.32,2.6,2.6,0,0,0-.36-.82,1.59,1.59,0,0,0-.6-.53,1.88,1.88,0,0,0-.86-.19,2.16,2.16,0,0,0-1.26.45,6.8,6.8,0,0,0-1.32,1.32v7.68a.35.35,0,0,1-.08.23.57.57,0,0,1-.27.16,2.31,2.31,0,0,1-.5.1,9.4,9.4,0,0,1-1.58,0,2.31,2.31,0,0,1-.5-.1.56.56,0,0,1-.27-.16.35.35,0,0,1-.08-.23V299.72a.39.39,0,0,1,.07-.23.48.48,0,0,1,.23-.16,1.87,1.87,0,0,1,.43-.1,5.7,5.7,0,0,1,.67,0,6,6,0,0,1,.69,0,1.55,1.55,0,0,1,.42.1.48.48,0,0,1,.21.16.4.4,0,0,1,.06.23V301a7.34,7.34,0,0,1,1.95-1.55,4.39,4.39,0,0,1,2.07-.52,4.57,4.57,0,0,1,2,.39,3.46,3.46,0,0,1,1.31,1.06,4.3,4.3,0,0,1,.72,1.56,9.11,9.11,0,0,1,.22,2.15Z"/><path class="cls-4" d="M320.92,310.12a4.05,4.05,0,0,1-.07.87.93.93,0,0,1-.19.43,1,1,0,0,1-.34.22,3.19,3.19,0,0,1-.53.17,5.54,5.54,0,0,1-.66.11,6.49,6.49,0,0,1-.72,0,5.16,5.16,0,0,1-1.68-.25,2.8,2.8,0,0,1-1.18-.76,3.15,3.15,0,0,1-.69-1.29,6.76,6.76,0,0,1-.22-1.84v-5.92h-1.38q-.25,0-.38-.3a2.84,2.84,0,0,1-.13-1,5.25,5.25,0,0,1,0-.63,1.54,1.54,0,0,1,.1-.41.48.48,0,0,1,.16-.21.4.4,0,0,1,.23-.07h1.37V296.7a.4.4,0,0,1,.07-.23.54.54,0,0,1,.26-.17,2,2,0,0,1,.5-.1q.32,0,.78,0t.8,0a1.93,1.93,0,0,1,.5.1.58.58,0,0,1,.26.17.38.38,0,0,1,.08.23v2.58h2.51a.4.4,0,0,1,.23.07.48.48,0,0,1,.16.21,1.54,1.54,0,0,1,.1.41,5.25,5.25,0,0,1,0,.63,2.84,2.84,0,0,1-.13,1q-.13.3-.38.3h-2.52v5.42a2.7,2.7,0,0,0,.3,1.42,1.16,1.16,0,0,0,1.06.47,2.2,2.2,0,0,0,.47,0l.37-.1.27-.1a.53.53,0,0,1,.2,0,.28.28,0,0,1,.15,0,.3.3,0,0,1,.11.18,2.73,2.73,0,0,1,.07.37A4.49,4.49,0,0,1,320.92,310.12Z"/><path class="cls-4" d="M333.62,305.15a1.26,1.26,0,0,1-.27.88,1,1,0,0,1-.73.29h-7a4.81,4.81,0,0,0,.17,1.34,2.58,2.58,0,0,0,.56,1,2.43,2.43,0,0,0,1,.64,4.22,4.22,0,0,0,1.44.22,8.12,8.12,0,0,0,1.5-.12,10,10,0,0,0,1.12-.27c.32-.1.58-.19.78-.27a1.45,1.45,0,0,1,.5-.12.38.38,0,0,1,.19,0,.34.34,0,0,1,.13.16,1.08,1.08,0,0,1,.07.33c0,.14,0,.32,0,.54s0,.35,0,.49a3,3,0,0,1,0,.34.85.85,0,0,1-.08.24,1,1,0,0,1-.14.19,1.58,1.58,0,0,1-.46.25,7.17,7.17,0,0,1-1,.3,13,13,0,0,1-1.33.26,11.11,11.11,0,0,1-1.61.11,8.5,8.5,0,0,1-2.7-.39,4.81,4.81,0,0,1-1.94-1.18,4.91,4.91,0,0,1-1.16-2,9.35,9.35,0,0,1-.38-2.82,9,9,0,0,1,.4-2.78,5.82,5.82,0,0,1,1.17-2.1,5,5,0,0,1,1.86-1.31,7.18,7.18,0,0,1,4.95,0,4.48,4.48,0,0,1,1.69,1.18,4.79,4.79,0,0,1,1,1.79,7.81,7.81,0,0,1,.31,2.25Zm-3.16-.93a3.35,3.35,0,0,0-.55-2.16,2.13,2.13,0,0,0-1.82-.78,2.36,2.36,0,0,0-1.08.23,2.2,2.2,0,0,0-.76.63,2.84,2.84,0,0,0-.47.93,4.64,4.64,0,0,0-.19,1.15Z"/><path class="cls-4" d="M343.71,300.79q0,.47,0,.76a2.33,2.33,0,0,1-.08.47.46.46,0,0,1-.14.23.34.34,0,0,1-.21.07.72.72,0,0,1-.23,0l-.29-.1-.36-.1a1.87,1.87,0,0,0-.43,0,1.44,1.44,0,0,0-.54.11,2.28,2.28,0,0,0-.56.34,4.15,4.15,0,0,0-.61.62,9.91,9.91,0,0,0-.68,1v7.2a.35.35,0,0,1-.08.23.57.57,0,0,1-.27.16,2.31,2.31,0,0,1-.5.1,9.4,9.4,0,0,1-1.58,0,2.31,2.31,0,0,1-.5-.1.56.56,0,0,1-.27-.16.35.35,0,0,1-.08-.23V299.72a.39.39,0,0,1,.07-.23.48.48,0,0,1,.23-.16,1.87,1.87,0,0,1,.43-.1,5.7,5.7,0,0,1,.67,0,6,6,0,0,1,.69,0,1.55,1.55,0,0,1,.42.1.48.48,0,0,1,.21.16.4.4,0,0,1,.06.23v1.44a9.22,9.22,0,0,1,.85-1.07,4.87,4.87,0,0,1,.76-.67,2.4,2.4,0,0,1,.73-.34,2.79,2.79,0,0,1,.72-.1l.36,0,.4.07.36.1a.71.71,0,0,1,.23.12.39.39,0,0,1,.1.14,1.15,1.15,0,0,1,.06.21,3.32,3.32,0,0,1,0,.41C343.71,300.23,343.71,300.48,343.71,300.79Z"/><path class="cls-4" d="M356.58,299.7s0,.09,0,.16,0,.13,0,.2,0,.16-.05.25,0,.2-.08.32l-3.47,10.45a1,1,0,0,1-.17.36.72.72,0,0,1-.36.21,3.05,3.05,0,0,1-.69.1q-.43,0-1.13,0c-.46,0-.83,0-1.12,0a3.13,3.13,0,0,1-.68-.11.72.72,0,0,1-.36-.21,1,1,0,0,1-.17-.34l-3.47-10.45q-.08-.26-.12-.47a2.48,2.48,0,0,1-.05-.3c0-.06,0-.12,0-.17a.37.37,0,0,1,.07-.23.52.52,0,0,1,.25-.16,2.05,2.05,0,0,1,.5-.09q.32,0,.8,0t.85,0a2.68,2.68,0,0,1,.51.09.49.49,0,0,1,.27.17,1,1,0,0,1,.13.27l2.63,8.48.08.32.08-.32,2.59-8.48a.7.7,0,0,1,.12-.27.52.52,0,0,1,.26-.17,2.5,2.5,0,0,1,.49-.09,7.89,7.89,0,0,1,.8,0c.32,0,.58,0,.78,0a1.81,1.81,0,0,1,.47.09.48.48,0,0,1,.23.16A.4.4,0,0,1,356.58,299.7Z"/><path class="cls-4" d="M362,295.81a1.83,1.83,0,0,1-.4,1.36,3.18,3.18,0,0,1-3,0,1.78,1.78,0,0,1-.38-1.31,1.87,1.87,0,0,1,.4-1.37,3.13,3.13,0,0,1,3,0A1.78,1.78,0,0,1,362,295.81Zm-.25,15.46a.35.35,0,0,1-.08.23.57.57,0,0,1-.27.16,2.31,2.31,0,0,1-.5.1,9.4,9.4,0,0,1-1.58,0,2.31,2.31,0,0,1-.5-.1.56.56,0,0,1-.27-.16.35.35,0,0,1-.08-.23V299.74a.35.35,0,0,1,.08-.23.61.61,0,0,1,.27-.17,2.23,2.23,0,0,1,.5-.11,8,8,0,0,1,1.58,0,2.23,2.23,0,0,1,.5.11.61.61,0,0,1,.27.17.35.35,0,0,1,.08.23Z"/><path class="cls-4" d="M375.67,305.15a1.26,1.26,0,0,1-.27.88,1,1,0,0,1-.73.29h-7a4.81,4.81,0,0,0,.17,1.34,2.58,2.58,0,0,0,.56,1,2.43,2.43,0,0,0,1,.64,4.22,4.22,0,0,0,1.44.22,8.12,8.12,0,0,0,1.5-.12,10,10,0,0,0,1.12-.27c.32-.1.58-.19.78-.27a1.45,1.45,0,0,1,.5-.12.38.38,0,0,1,.19,0,.34.34,0,0,1,.13.16,1.08,1.08,0,0,1,.07.33c0,.14,0,.32,0,.54s0,.35,0,.49a3,3,0,0,1,0,.34.85.85,0,0,1-.08.24,1,1,0,0,1-.14.19,1.58,1.58,0,0,1-.46.25,7.17,7.17,0,0,1-1,.3,13,13,0,0,1-1.33.26,11.11,11.11,0,0,1-1.61.11,8.5,8.5,0,0,1-2.7-.39,4.81,4.81,0,0,1-1.94-1.18,4.91,4.91,0,0,1-1.16-2,9.35,9.35,0,0,1-.38-2.82,9,9,0,0,1,.4-2.78,5.82,5.82,0,0,1,1.17-2.1,5,5,0,0,1,1.86-1.31,7.18,7.18,0,0,1,4.95,0,4.48,4.48,0,0,1,1.69,1.18,4.79,4.79,0,0,1,1,1.79,7.81,7.81,0,0,1,.31,2.25Zm-3.16-.93a3.35,3.35,0,0,0-.55-2.16,2.13,2.13,0,0,0-1.82-.78,2.36,2.36,0,0,0-1.08.23,2.2,2.2,0,0,0-.76.63,2.84,2.84,0,0,0-.47.93,4.64,4.64,0,0,0-.19,1.15Z"/><path class="cls-4" d="M395.9,299.69a2,2,0,0,1,0,.35q0,.21-.14.6l-3.08,10.45a1.11,1.11,0,0,1-.17.36.68.68,0,0,1-.32.21,2.32,2.32,0,0,1-.61.1q-.4,0-1,0c-.42,0-.77,0-1,0a2.68,2.68,0,0,1-.63-.11.67.67,0,0,1-.33-.21.93.93,0,0,1-.16-.34l-1.94-7,0-.12,0,.12-1.79,7a1,1,0,0,1-.15.36.64.64,0,0,1-.33.21,2.62,2.62,0,0,1-.63.1q-.4,0-1,0c-.43,0-.78,0-1,0a2.67,2.67,0,0,1-.62-.11.68.68,0,0,1-.33-.21.93.93,0,0,1-.16-.34l-3.05-10.45a4.23,4.23,0,0,1-.15-.59,2.46,2.46,0,0,1,0-.36.37.37,0,0,1,.07-.23.48.48,0,0,1,.26-.16,2.43,2.43,0,0,1,.5-.08q.32,0,.8,0t.84,0a2.07,2.07,0,0,1,.5.09.48.48,0,0,1,.25.17.88.88,0,0,1,.11.27l2.29,8.48,0,.16,0-.16,2.15-8.48a.7.7,0,0,1,.12-.27.56.56,0,0,1,.25-.17,1.81,1.81,0,0,1,.47-.09q.3,0,.78,0a7.5,7.5,0,0,1,.78,0,2.32,2.32,0,0,1,.47.09.49.49,0,0,1,.25.16.76.76,0,0,1,.11.23l2.3,8.54,0,.14,0-.16,2.2-8.48a.64.64,0,0,1,.1-.27.52.52,0,0,1,.26-.17,2,2,0,0,1,.49-.09q.31,0,.79,0c.32,0,.58,0,.78,0a2.15,2.15,0,0,1,.48.08.44.44,0,0,1,.24.16A.4.4,0,0,1,395.9,299.69Z"/><path class="cls-4" d="M253.71,327.62a1.83,1.83,0,0,1-.4,1.36,3.18,3.18,0,0,1-3,0,1.78,1.78,0,0,1-.38-1.31,1.87,1.87,0,0,1,.4-1.37,3.13,3.13,0,0,1,3,0A1.78,1.78,0,0,1,253.71,327.62Zm-.25,15.46a.35.35,0,0,1-.08.23.57.57,0,0,1-.27.16,2.31,2.31,0,0,1-.5.1,9.4,9.4,0,0,1-1.58,0,2.31,2.31,0,0,1-.5-.1.56.56,0,0,1-.27-.16.35.35,0,0,1-.08-.23V331.56a.35.35,0,0,1,.08-.23.61.61,0,0,1,.27-.17,2.23,2.23,0,0,1,.5-.11,8,8,0,0,1,1.58,0,2.23,2.23,0,0,1,.5.11.61.61,0,0,1,.27.17.35.35,0,0,1,.08.23Z"/><path class="cls-4" d="M264.84,339.82a3.88,3.88,0,0,1-.37,1.73,3.46,3.46,0,0,1-1,1.26,4.69,4.69,0,0,1-1.59.76,7.85,7.85,0,0,1-4.29-.09,5.56,5.56,0,0,1-.78-.3,1.88,1.88,0,0,1-.45-.29.9.9,0,0,1-.22-.43,3.57,3.57,0,0,1-.08-.86,5.5,5.5,0,0,1,0-.6,1.53,1.53,0,0,1,.08-.36.34.34,0,0,1,.13-.18.38.38,0,0,1,.19,0,1,1,0,0,1,.42.16c.19.11.42.23.69.36a7.44,7.44,0,0,0,1,.36,4.26,4.26,0,0,0,1.25.17,3.07,3.07,0,0,0,.78-.09,2,2,0,0,0,.6-.26,1.1,1.1,0,0,0,.38-.43,1.32,1.32,0,0,0,.13-.6,1,1,0,0,0-.24-.67,2.14,2.14,0,0,0-.63-.49,7.21,7.21,0,0,0-.89-.39l-1-.4a9.56,9.56,0,0,1-1-.5,3.9,3.9,0,0,1-.89-.7,3.18,3.18,0,0,1-.63-1,3.68,3.68,0,0,1-.24-1.4,3.55,3.55,0,0,1,.32-1.52,3.3,3.3,0,0,1,.93-1.18,4.4,4.4,0,0,1,1.48-.76,6.57,6.57,0,0,1,2-.27,7,7,0,0,1,1.05.08,7.63,7.63,0,0,1,.93.19,4.46,4.46,0,0,1,.7.25,2.34,2.34,0,0,1,.41.23.64.64,0,0,1,.17.19.81.81,0,0,1,.08.23c0,.09,0,.2,0,.34s0,.3,0,.5,0,.42,0,.57a1.48,1.48,0,0,1-.06.35.31.31,0,0,1-.12.17.35.35,0,0,1-.18,0,.88.88,0,0,1-.36-.14c-.16-.09-.37-.19-.61-.29a7.35,7.35,0,0,0-.85-.29,4.11,4.11,0,0,0-1.11-.14,2.85,2.85,0,0,0-.76.09,1.45,1.45,0,0,0-.53.26,1.08,1.08,0,0,0-.31.39,1.15,1.15,0,0,0-.1.49,1,1,0,0,0,.25.67,2.26,2.26,0,0,0,.65.48,7.31,7.31,0,0,0,.91.39l1,.39a9.57,9.57,0,0,1,1,.5,4,4,0,0,1,.91.7,3.23,3.23,0,0,1,.65,1A3.47,3.47,0,0,1,264.84,339.82Z"/><path class="cls-4" d="M282,341.24c0,.22,0,.41,0,.56a3.28,3.28,0,0,1-.05.38,1.15,1.15,0,0,1-.08.25.93.93,0,0,1-.2.25,2.84,2.84,0,0,1-.53.36,5.3,5.3,0,0,1-.85.38,7,7,0,0,1-1,.27,6.46,6.46,0,0,1-1.16.1,6.29,6.29,0,0,1-2.36-.42,4.43,4.43,0,0,1-1.73-1.22,5.38,5.38,0,0,1-1.05-2,9.13,9.13,0,0,1-.36-2.67,9.25,9.25,0,0,1,.43-3,5.73,5.73,0,0,1,1.21-2.09,4.84,4.84,0,0,1,1.84-1.23,6.54,6.54,0,0,1,2.33-.4,5.66,5.66,0,0,1,1,.09,5.8,5.8,0,0,1,.93.25,5.09,5.09,0,0,1,.78.35,2.43,2.43,0,0,1,.49.34,1.37,1.37,0,0,1,.2.24.81.81,0,0,1,.09.25,3.25,3.25,0,0,1,.05.38c0,.15,0,.33,0,.55a3,3,0,0,1-.13,1.05q-.13.3-.34.3a.8.8,0,0,1-.47-.18l-.58-.4a4.33,4.33,0,0,0-.8-.4,3.06,3.06,0,0,0-1.11-.18,2.21,2.21,0,0,0-1.94,1,5,5,0,0,0-.67,2.87,7.17,7.17,0,0,0,.17,1.64,3.49,3.49,0,0,0,.5,1.19,2.1,2.1,0,0,0,.83.72,2.66,2.66,0,0,0,1.16.24,3,3,0,0,0,1.16-.2,4.66,4.66,0,0,0,.85-.45q.36-.25.61-.45a.72.72,0,0,1,.41-.2.29.29,0,0,1,.19.07.47.47,0,0,1,.12.24,3,3,0,0,1,.07.45C282,340.72,282,341,282,341.24Z"/><path class="cls-4" d="M295.92,337.19a8.82,8.82,0,0,1-.39,2.69,5.68,5.68,0,0,1-1.18,2.1,5.22,5.22,0,0,1-2,1.36,7.43,7.43,0,0,1-2.78.48,7.61,7.61,0,0,1-2.68-.43,4.8,4.8,0,0,1-1.89-1.24,5.1,5.1,0,0,1-1.11-2,9.32,9.32,0,0,1-.36-2.72,8.74,8.74,0,0,1,.4-2.7,5.67,5.67,0,0,1,1.18-2.1,5.29,5.29,0,0,1,2-1.35,7.38,7.38,0,0,1,2.78-.48,7.78,7.78,0,0,1,2.69.42,4.72,4.72,0,0,1,1.88,1.24,5.15,5.15,0,0,1,1.11,2A9.4,9.4,0,0,1,295.92,337.19Zm-3.35.13a8.53,8.53,0,0,0-.14-1.57,3.7,3.7,0,0,0-.46-1.25,2.3,2.3,0,0,0-.86-.83,2.76,2.76,0,0,0-1.35-.3,2.86,2.86,0,0,0-1.27.27,2.28,2.28,0,0,0-.89.78,3.71,3.71,0,0,0-.52,1.23,6.91,6.91,0,0,0-.17,1.64,8.11,8.11,0,0,0,.14,1.57,3.89,3.89,0,0,0,.46,1.25,2.19,2.19,0,0,0,.86.82,2.82,2.82,0,0,0,1.35.29,2.9,2.9,0,0,0,1.28-.26,2.29,2.29,0,0,0,.89-.77,3.55,3.55,0,0,0,.52-1.22A7.2,7.2,0,0,0,292.57,337.32Z"/><path class="cls-4" d="M309.52,343.08a.35.35,0,0,1-.08.23.57.57,0,0,1-.26.16,2.22,2.22,0,0,1-.5.1c-.21,0-.47,0-.78,0s-.58,0-.8,0a2.2,2.2,0,0,1-.5-.1.56.56,0,0,1-.26-.16.35.35,0,0,1-.08-.23v-6.59a5.56,5.56,0,0,0-.12-1.32,2.6,2.6,0,0,0-.36-.82,1.59,1.59,0,0,0-.6-.53,1.88,1.88,0,0,0-.86-.19,2.16,2.16,0,0,0-1.26.45,6.8,6.8,0,0,0-1.32,1.32v7.68a.35.35,0,0,1-.08.23.57.57,0,0,1-.27.16,2.31,2.31,0,0,1-.5.1,9.4,9.4,0,0,1-1.58,0,2.31,2.31,0,0,1-.5-.1.56.56,0,0,1-.27-.16.35.35,0,0,1-.08-.23V331.53a.39.39,0,0,1,.07-.23.48.48,0,0,1,.23-.16,1.87,1.87,0,0,1,.43-.1,5.7,5.7,0,0,1,.67,0,6,6,0,0,1,.69,0,1.55,1.55,0,0,1,.42.1.48.48,0,0,1,.21.16.4.4,0,0,1,.06.23v1.33a7.34,7.34,0,0,1,1.95-1.55,4.39,4.39,0,0,1,2.07-.52,4.57,4.57,0,0,1,2,.39,3.46,3.46,0,0,1,1.31,1.06,4.3,4.3,0,0,1,.72,1.56,9.11,9.11,0,0,1,.22,2.15Z"/><path class="cls-4" d="M324,343.08a.35.35,0,0,1-.08.23.56.56,0,0,1-.26.16,2.22,2.22,0,0,1-.5.1c-.21,0-.47,0-.78,0s-.58,0-.8,0a2.22,2.22,0,0,1-.5-.1.56.56,0,0,1-.26-.16.35.35,0,0,1-.08-.23v-9.35h-4.29v9.35a.35.35,0,0,1-.08.23.56.56,0,0,1-.26.16,2.22,2.22,0,0,1-.5.1c-.21,0-.48,0-.8,0s-.57,0-.78,0a2.33,2.33,0,0,1-.5-.1.52.52,0,0,1-.26-.16.37.37,0,0,1-.07-.23v-9.35h-1.45q-.25,0-.37-.3a3,3,0,0,1-.12-1,5,5,0,0,1,0-.63,1.75,1.75,0,0,1,.09-.41.44.44,0,0,1,.16-.21.4.4,0,0,1,.23-.07h1.44v-1a7.86,7.86,0,0,1,.24-2.06,3.81,3.81,0,0,1,.73-1.47,3,3,0,0,1,1.24-.88,4.89,4.89,0,0,1,1.77-.29l.58,0,.55.08.45.12a.71.71,0,0,1,.27.14.64.64,0,0,1,.12.16,1,1,0,0,1,.08.23,2.35,2.35,0,0,1,0,.37c0,.15,0,.34,0,.56a3.63,3.63,0,0,1-.07.87c0,.17-.14.25-.28.25l-.17,0-.23-.06-.32-.07a2.66,2.66,0,0,0-.45,0,1.11,1.11,0,0,0-1,.47,2.88,2.88,0,0,0-.31,1.54v1.1H323a1.1,1.1,0,0,1,.74.21.86.86,0,0,1,.25.68Zm.25-15.43a3.36,3.36,0,0,1-.08.81,1.1,1.1,0,0,1-.29.53,1.17,1.17,0,0,1-.56.29,3.91,3.91,0,0,1-.89.08,4,4,0,0,1-.89-.08,1.23,1.23,0,0,1-.58-.29,1.07,1.07,0,0,1-.3-.53,3.36,3.36,0,0,1-.08-.81,3.2,3.2,0,0,1,.08-.79,1.12,1.12,0,0,1,.3-.53,1.25,1.25,0,0,1,.58-.3,3.79,3.79,0,0,1,.89-.09,3.71,3.71,0,0,1,.89.09,1.19,1.19,0,0,1,.56.3,1.14,1.14,0,0,1,.29.53A3.2,3.2,0,0,1,324.24,327.65Z"/><path class="cls-4" d="M334.69,332.6q0,.47,0,.76a2.33,2.33,0,0,1-.08.47.46.46,0,0,1-.14.23.34.34,0,0,1-.21.07.72.72,0,0,1-.23,0l-.29-.1-.36-.1a1.87,1.87,0,0,0-.43,0,1.44,1.44,0,0,0-.54.11,2.28,2.28,0,0,0-.56.34,4.15,4.15,0,0,0-.61.62,9.91,9.91,0,0,0-.68,1v7.2a.35.35,0,0,1-.08.23.57.57,0,0,1-.27.16,2.31,2.31,0,0,1-.5.1,9.4,9.4,0,0,1-1.58,0,2.31,2.31,0,0,1-.5-.1.56.56,0,0,1-.27-.16.35.35,0,0,1-.08-.23V331.53a.39.39,0,0,1,.07-.23.48.48,0,0,1,.23-.16,1.87,1.87,0,0,1,.43-.1,5.7,5.7,0,0,1,.67,0,6,6,0,0,1,.69,0,1.55,1.55,0,0,1,.42.1.48.48,0,0,1,.21.16.4.4,0,0,1,.06.23V333a9.22,9.22,0,0,1,.85-1.07,4.87,4.87,0,0,1,.76-.67,2.4,2.4,0,0,1,.73-.34,2.79,2.79,0,0,1,.72-.1l.36,0,.4.07.36.1a.71.71,0,0,1,.23.12.39.39,0,0,1,.1.14,1.15,1.15,0,0,1,.06.21,3.32,3.32,0,0,1,0,.41C334.69,332,334.69,332.29,334.69,332.6Z"/><path class="cls-4" d="M355.07,343.08a.35.35,0,0,1-.08.23.57.57,0,0,1-.26.16,2.2,2.2,0,0,1-.49.1,7.88,7.88,0,0,1-.79,0c-.33,0-.59,0-.8,0a2.31,2.31,0,0,1-.5-.1.52.52,0,0,1-.26-.16.37.37,0,0,1-.07-.23v-6.85a4.75,4.75,0,0,0-.11-1.06,2.5,2.5,0,0,0-.34-.82,1.59,1.59,0,0,0-.57-.53,1.69,1.69,0,0,0-.82-.19,2,2,0,0,0-1.18.45,7.91,7.91,0,0,0-1.29,1.32v7.68a.35.35,0,0,1-.08.23.56.56,0,0,1-.26.16,2.34,2.34,0,0,1-.5.1,7.7,7.7,0,0,1-.78,0,7.88,7.88,0,0,1-.79,0,2.31,2.31,0,0,1-.5-.1.57.57,0,0,1-.27-.16.35.35,0,0,1-.08-.23v-6.85a4.75,4.75,0,0,0-.11-1.06,2.58,2.58,0,0,0-.33-.82,1.53,1.53,0,0,0-.57-.53,1.7,1.7,0,0,0-.82-.19,2,2,0,0,0-1.19.45A7.54,7.54,0,0,0,340,335.4v7.68a.35.35,0,0,1-.08.23.57.57,0,0,1-.27.16,2.31,2.31,0,0,1-.5.1,9.4,9.4,0,0,1-1.58,0,2.31,2.31,0,0,1-.5-.1.56.56,0,0,1-.27-.16.35.35,0,0,1-.08-.23V331.53a.39.39,0,0,1,.07-.23.48.48,0,0,1,.23-.16,1.87,1.87,0,0,1,.43-.1,5.7,5.7,0,0,1,.67,0,6,6,0,0,1,.69,0,1.55,1.55,0,0,1,.42.1.48.48,0,0,1,.21.16.4.4,0,0,1,.06.23v1.33a7.65,7.65,0,0,1,1.91-1.55,4.1,4.1,0,0,1,2-.52,5.07,5.07,0,0,1,1.28.15,3.67,3.67,0,0,1,1,.43,3.22,3.22,0,0,1,.77.67,3.89,3.89,0,0,1,.54.87,9.75,9.75,0,0,1,1-1,5.92,5.92,0,0,1,1-.65,4.55,4.55,0,0,1,1-.38,4.06,4.06,0,0,1,1-.12,4.38,4.38,0,0,1,1.94.39,3.39,3.39,0,0,1,1.28,1.06,4.24,4.24,0,0,1,.69,1.56,8.37,8.37,0,0,1,.21,1.89Z"/><path class="cls-4" d="M368.93,337a1.26,1.26,0,0,1-.27.88,1,1,0,0,1-.73.29h-7a4.81,4.81,0,0,0,.17,1.34,2.58,2.58,0,0,0,.56,1,2.43,2.43,0,0,0,1,.64,4.22,4.22,0,0,0,1.44.22,8.12,8.12,0,0,0,1.5-.12,10,10,0,0,0,1.12-.27c.32-.1.58-.19.78-.27a1.45,1.45,0,0,1,.5-.12.38.38,0,0,1,.19,0,.34.34,0,0,1,.13.16,1.08,1.08,0,0,1,.07.33c0,.14,0,.32,0,.54s0,.35,0,.49a3,3,0,0,1,0,.34.85.85,0,0,1-.08.24,1,1,0,0,1-.14.19,1.58,1.58,0,0,1-.46.25,7.17,7.17,0,0,1-1,.3,13,13,0,0,1-1.33.26,11.11,11.11,0,0,1-1.61.11,8.5,8.5,0,0,1-2.7-.39,4.81,4.81,0,0,1-1.94-1.18,4.91,4.91,0,0,1-1.16-2,9.35,9.35,0,0,1-.38-2.82,9,9,0,0,1,.4-2.78,5.82,5.82,0,0,1,1.17-2.1,5,5,0,0,1,1.86-1.31,7.18,7.18,0,0,1,4.95,0,4.48,4.48,0,0,1,1.69,1.18,4.79,4.79,0,0,1,1,1.79,7.81,7.81,0,0,1,.31,2.25Zm-3.16-.93a3.35,3.35,0,0,0-.55-2.16,2.13,2.13,0,0,0-1.82-.78,2.36,2.36,0,0,0-1.08.23,2.2,2.2,0,0,0-.76.63,2.84,2.84,0,0,0-.47.93,4.64,4.64,0,0,0-.19,1.15Z"/><path class="cls-4" d="M382.56,343.08a.42.42,0,0,1-.07.24.47.47,0,0,1-.22.16,1.52,1.52,0,0,1-.42.09q-.27,0-.65,0t-.67,0a1.59,1.59,0,0,1-.42-.09.52.52,0,0,1-.23-.16.39.39,0,0,1-.07-.24V341.8a7.42,7.42,0,0,1-1.87,1.49,4.9,4.9,0,0,1-4.4,0,4.26,4.26,0,0,1-1.49-1.38,6,6,0,0,1-.83-2,11.15,11.15,0,0,1-.26-2.44,10.71,10.71,0,0,1,.33-2.77,6.28,6.28,0,0,1,1-2.1,4.27,4.27,0,0,1,1.58-1.33,4.86,4.86,0,0,1,2.17-.47,3.88,3.88,0,0,1,1.76.39,6.27,6.27,0,0,1,1.57,1.16v-6.25a.4.4,0,0,1,.07-.23.53.53,0,0,1,.26-.17,2.28,2.28,0,0,1,.5-.11,8.2,8.2,0,0,1,1.58,0,2.16,2.16,0,0,1,.49.11.58.58,0,0,1,.26.17.38.38,0,0,1,.08.23Zm-3.24-7.71A7.17,7.17,0,0,0,378,334a2.25,2.25,0,0,0-1.34-.47,1.87,1.87,0,0,0-1.09.32,2.31,2.31,0,0,0-.74.85,4.52,4.52,0,0,0-.41,1.18,6.55,6.55,0,0,0-.14,1.34,8.36,8.36,0,0,0,.12,1.41,4.43,4.43,0,0,0,.38,1.22,2.32,2.32,0,0,0,.71.86,1.83,1.83,0,0,0,1.11.32,2.23,2.23,0,0,0,.65-.1,2.48,2.48,0,0,0,.65-.32,4.38,4.38,0,0,0,.68-.58q.35-.36.76-.87Z"/></g><line class="cls-5" x1="384" y1="141.88" x2="384" y2="141.88"/><line class="cls-6" x1="397.88" y1="141.88" x2="876.54" y2="141.88"/><line class="cls-5" x1="883.47" y1="141.88" x2="883.47" y2="141.88"/><polygon class="cls-7" points="879.1 156.84 905 141.88 879.1 126.92 879.1 156.84"/><use width="734.16" height="856.37" transform="translate(949.4 60.4) scale(0.17 0.17)" xlink:href="#Users"/><use id="SMS-3" data-name="SMS" width="666" height="541.64" transform="translate(685.21 176.33) scale(0.16 0.16)" xlink:href="#SMS"/><path class="cls-4" d="M504.4,314.14a.55.55,0,0,1-.06.26.45.45,0,0,1-.27.18,2.65,2.65,0,0,1-.63.1q-.41,0-1.13,0t-1,0a2.12,2.12,0,0,1-.56-.11.61.61,0,0,1-.29-.2,1.14,1.14,0,0,1-.14-.29L498.71,310q-.3-.7-.58-1.24a3.94,3.94,0,0,0-.63-.91,2.32,2.32,0,0,0-.8-.55,2.8,2.8,0,0,0-1.05-.18h-1.17v7a.39.39,0,0,1-.09.26.65.65,0,0,1-.31.19,3,3,0,0,1-.57.11,9.63,9.63,0,0,1-1.82,0,3,3,0,0,1-.58-.11.61.61,0,0,1-.3-.19.42.42,0,0,1-.08-.26V297.36a1.14,1.14,0,0,1,.32-.91,1.17,1.17,0,0,1,.79-.28h4.77q.73,0,1.2,0l.86.07a7.75,7.75,0,0,1,2,.54,4.79,4.79,0,0,1,1.51,1,4.18,4.18,0,0,1,.95,1.47,5.37,5.37,0,0,1,.33,1.95,5.73,5.73,0,0,1-.24,1.69,4.35,4.35,0,0,1-.69,1.36,4.53,4.53,0,0,1-1.13,1,6.08,6.08,0,0,1-1.53.71,4.24,4.24,0,0,1,.78.48,4.13,4.13,0,0,1,.68.69,6.67,6.67,0,0,1,.61.93,12,12,0,0,1,.56,1.18L504,313q.21.54.29.79A1.57,1.57,0,0,1,504.4,314.14Zm-4.83-12.51a2.74,2.74,0,0,0-.41-1.54,2.25,2.25,0,0,0-1.35-.88,5.08,5.08,0,0,0-.65-.11,9.14,9.14,0,0,0-1,0h-1.68v5.23h1.91a4.55,4.55,0,0,0,1.4-.19,2.79,2.79,0,0,0,1-.54,2.23,2.23,0,0,0,.6-.83A2.83,2.83,0,0,0,499.57,301.63Z"/><path class="cls-4" d="M518.25,307.41a1.39,1.39,0,0,1-.29,1,1,1,0,0,1-.81.31h-7.74a5.29,5.29,0,0,0,.19,1.47,2.82,2.82,0,0,0,.61,1.13,2.68,2.68,0,0,0,1.08.71,4.65,4.65,0,0,0,1.59.24,8.89,8.89,0,0,0,1.65-.14,10.89,10.89,0,0,0,1.23-.3q.52-.16.86-.3a1.61,1.61,0,0,1,.56-.14.42.42,0,0,1,.21.05.37.37,0,0,1,.14.18,1.24,1.24,0,0,1,.08.36c0,.16,0,.35,0,.59s0,.39,0,.53a3.29,3.29,0,0,1,0,.38.89.89,0,0,1-.08.26,1,1,0,0,1-.15.21,1.72,1.72,0,0,1-.51.27,8,8,0,0,1-1.05.33,14.72,14.72,0,0,1-1.47.29,12.29,12.29,0,0,1-1.77.12,9.35,9.35,0,0,1-3-.43,5.3,5.3,0,0,1-2.13-1.3,5.39,5.39,0,0,1-1.28-2.2,10.27,10.27,0,0,1-.42-3.11,9.89,9.89,0,0,1,.44-3.06,6.42,6.42,0,0,1,1.28-2.31,5.52,5.52,0,0,1,2-1.45,7.9,7.9,0,0,1,5.44,0,4.91,4.91,0,0,1,1.86,1.3,5.26,5.26,0,0,1,1.07,2,8.58,8.58,0,0,1,.34,2.48Zm-3.48-1a3.69,3.69,0,0,0-.61-2.37,2.34,2.34,0,0,0-2-.86,2.61,2.61,0,0,0-1.19.26,2.44,2.44,0,0,0-.84.69,3.13,3.13,0,0,0-.51,1,5.12,5.12,0,0,0-.21,1.26Z"/><path class="cls-4" d="M541.43,314.14a.39.39,0,0,1-.08.25.63.63,0,0,1-.29.18,2.43,2.43,0,0,1-.54.11c-.23,0-.52,0-.87,0s-.66,0-.88,0a2.57,2.57,0,0,1-.55-.11.58.58,0,0,1-.28-.18.41.41,0,0,1-.08-.25V306.6a5.2,5.2,0,0,0-.12-1.17,2.76,2.76,0,0,0-.37-.91,1.78,1.78,0,0,0-.63-.58,1.87,1.87,0,0,0-.91-.21,2.14,2.14,0,0,0-1.3.5,8.67,8.67,0,0,0-1.43,1.45v8.45a.39.39,0,0,1-.08.25.64.64,0,0,1-.29.18,2.58,2.58,0,0,1-.55.11c-.23,0-.51,0-.86,0s-.64,0-.87,0a2.56,2.56,0,0,1-.55-.11.63.63,0,0,1-.29-.18.38.38,0,0,1-.09-.25V306.6a5.2,5.2,0,0,0-.12-1.17,2.86,2.86,0,0,0-.36-.91,1.7,1.7,0,0,0-.63-.58,1.88,1.88,0,0,0-.9-.21,2.16,2.16,0,0,0-1.31.5,8.26,8.26,0,0,0-1.41,1.45v8.45a.38.38,0,0,1-.09.25.63.63,0,0,1-.29.18,2.56,2.56,0,0,1-.55.11c-.23,0-.52,0-.87,0s-.64,0-.87,0a2.56,2.56,0,0,1-.55-.11.64.64,0,0,1-.29-.18.39.39,0,0,1-.08-.25V301.43a.44.44,0,0,1,.07-.25.51.51,0,0,1,.26-.18,2.05,2.05,0,0,1,.48-.11,6.34,6.34,0,0,1,.73,0,6.7,6.7,0,0,1,.76,0,1.72,1.72,0,0,1,.46.11.52.52,0,0,1,.24.18.44.44,0,0,1,.07.25v1.47a8.41,8.41,0,0,1,2.1-1.71,4.52,4.52,0,0,1,2.19-.57,5.64,5.64,0,0,1,1.41.16,4,4,0,0,1,1.12.47,3.52,3.52,0,0,1,.85.73,4.3,4.3,0,0,1,.6,1,10.67,10.67,0,0,1,1.12-1.05,6.52,6.52,0,0,1,1.08-.72,5,5,0,0,1,1.07-.41,4.44,4.44,0,0,1,1.09-.13A4.83,4.83,0,0,1,539,301a3.75,3.75,0,0,1,1.4,1.16,4.67,4.67,0,0,1,.76,1.72,9.22,9.22,0,0,1,.23,2.08Z"/><path class="cls-4" d="M548.81,297.12a2,2,0,0,1-.44,1.5,3.49,3.49,0,0,1-3.27,0,2,2,0,0,1-.42-1.44,2.06,2.06,0,0,1,.43-1.5,3.44,3.44,0,0,1,3.27,0A2,2,0,0,1,548.81,297.12Zm-.27,17a.38.38,0,0,1-.09.25.63.63,0,0,1-.29.18,2.56,2.56,0,0,1-.55.11c-.23,0-.52,0-.87,0s-.64,0-.87,0a2.56,2.56,0,0,1-.55-.11.64.64,0,0,1-.29-.18.39.39,0,0,1-.08-.25V301.45a.39.39,0,0,1,.08-.25.68.68,0,0,1,.29-.18,2.4,2.4,0,0,1,.55-.12,8.81,8.81,0,0,1,1.74,0,2.4,2.4,0,0,1,.55.12.67.67,0,0,1,.29.18.39.39,0,0,1,.09.25Z"/><path class="cls-4" d="M564.26,314.14a.39.39,0,0,1-.08.25.63.63,0,0,1-.29.18,2.45,2.45,0,0,1-.55.11c-.23,0-.52,0-.86,0s-.64,0-.88,0a2.44,2.44,0,0,1-.55-.11.62.62,0,0,1-.29-.18.38.38,0,0,1-.09-.25v-7.25a6.14,6.14,0,0,0-.13-1.45,2.89,2.89,0,0,0-.39-.91,1.75,1.75,0,0,0-.66-.58,2.08,2.08,0,0,0-.95-.21,2.37,2.37,0,0,0-1.38.5,7.47,7.47,0,0,0-1.45,1.45v8.45a.38.38,0,0,1-.09.25.63.63,0,0,1-.29.18,2.56,2.56,0,0,1-.55.11c-.23,0-.52,0-.87,0s-.64,0-.87,0a2.56,2.56,0,0,1-.55-.11.64.64,0,0,1-.29-.18.39.39,0,0,1-.08-.25V301.43a.44.44,0,0,1,.07-.25.51.51,0,0,1,.26-.18,2.05,2.05,0,0,1,.48-.11,6.34,6.34,0,0,1,.73,0,6.7,6.7,0,0,1,.76,0,1.72,1.72,0,0,1,.46.11.52.52,0,0,1,.24.18.44.44,0,0,1,.07.25v1.47a8.08,8.08,0,0,1,2.14-1.71,4.85,4.85,0,0,1,2.27-.57,5,5,0,0,1,2.19.43,3.83,3.83,0,0,1,1.44,1.16,4.7,4.7,0,0,1,.79,1.72,10,10,0,0,1,.24,2.37Z"/><path class="cls-4" d="M579.84,314.14a.47.47,0,0,1-.07.26.52.52,0,0,1-.24.18,1.63,1.63,0,0,1-.46.1q-.29,0-.72,0t-.74,0a1.71,1.71,0,0,1-.46-.1.57.57,0,0,1-.26-.18.44.44,0,0,1-.08-.26v-1.41a8.16,8.16,0,0,1-2.06,1.64,4.92,4.92,0,0,1-2.39.58,5,5,0,0,1-2.46-.56,4.69,4.69,0,0,1-1.64-1.52,6.59,6.59,0,0,1-.92-2.23,12.33,12.33,0,0,1-.28-2.69,11.78,11.78,0,0,1,.36-3,6.89,6.89,0,0,1,1.06-2.31,4.71,4.71,0,0,1,1.74-1.47,5.35,5.35,0,0,1,2.39-.51,4.27,4.27,0,0,1,1.94.43,6.89,6.89,0,0,1,1.72,1.28v-6.88a.45.45,0,0,1,.08-.26.59.59,0,0,1,.29-.19,2.47,2.47,0,0,1,.55-.12,8.82,8.82,0,0,1,1.74,0,2.33,2.33,0,0,1,.54.12.63.63,0,0,1,.29.19.42.42,0,0,1,.09.26Zm-3.56-8.5a7.9,7.9,0,0,0-1.47-1.48,2.47,2.47,0,0,0-1.48-.51,2.07,2.07,0,0,0-1.2.35,2.54,2.54,0,0,0-.81.93,5,5,0,0,0-.46,1.3,7.25,7.25,0,0,0-.15,1.48,9.31,9.31,0,0,0,.13,1.55,4.87,4.87,0,0,0,.42,1.35,2.54,2.54,0,0,0,.78.95,2,2,0,0,0,1.23.36,2.44,2.44,0,0,0,.72-.11,2.71,2.71,0,0,0,.71-.35,4.81,4.81,0,0,0,.75-.63,12.6,12.6,0,0,0,.84-1Z"/><path class="cls-4" d="M595.19,307.41a1.39,1.39,0,0,1-.29,1,1,1,0,0,1-.81.31h-7.74a5.29,5.29,0,0,0,.19,1.47,2.82,2.82,0,0,0,.61,1.13,2.68,2.68,0,0,0,1.08.71,4.65,4.65,0,0,0,1.59.24,8.89,8.89,0,0,0,1.65-.14,10.89,10.89,0,0,0,1.23-.3q.52-.16.86-.3a1.61,1.61,0,0,1,.56-.14.42.42,0,0,1,.21.05.37.37,0,0,1,.14.18,1.24,1.24,0,0,1,.08.36c0,.16,0,.35,0,.59s0,.39,0,.53a3.29,3.29,0,0,1,0,.38.89.89,0,0,1-.08.26,1,1,0,0,1-.15.21,1.72,1.72,0,0,1-.51.27,8,8,0,0,1-1.05.33,14.72,14.72,0,0,1-1.47.29,12.29,12.29,0,0,1-1.77.12,9.35,9.35,0,0,1-3-.43,5.3,5.3,0,0,1-2.13-1.3,5.39,5.39,0,0,1-1.28-2.2,10.27,10.27,0,0,1-.42-3.11,9.89,9.89,0,0,1,.44-3.06,6.42,6.42,0,0,1,1.28-2.31,5.52,5.52,0,0,1,2-1.45,7.9,7.9,0,0,1,5.44,0,4.91,4.91,0,0,1,1.86,1.3,5.26,5.26,0,0,1,1.07,2,8.58,8.58,0,0,1,.34,2.48Zm-3.48-1a3.69,3.69,0,0,0-.61-2.37,2.34,2.34,0,0,0-2-.86,2.61,2.61,0,0,0-1.19.26,2.44,2.44,0,0,0-.84.69,3.13,3.13,0,0,0-.51,1,5.12,5.12,0,0,0-.21,1.26Z"/><path class="cls-4" d="M606.3,302.61q0,.51,0,.84a2.54,2.54,0,0,1-.08.51.5.5,0,0,1-.15.26.37.37,0,0,1-.24.07.79.79,0,0,1-.26,0l-.32-.11-.39-.11a2.07,2.07,0,0,0-.47,0,1.58,1.58,0,0,0-.6.12,2.53,2.53,0,0,0-.62.38,4.56,4.56,0,0,0-.67.68,11,11,0,0,0-.75,1.05v7.92a.38.38,0,0,1-.09.25.63.63,0,0,1-.29.18,2.56,2.56,0,0,1-.55.11c-.23,0-.52,0-.87,0s-.64,0-.87,0a2.56,2.56,0,0,1-.55-.11.64.64,0,0,1-.29-.18.39.39,0,0,1-.08-.25V301.43a.44.44,0,0,1,.07-.25.51.51,0,0,1,.26-.18,2.05,2.05,0,0,1,.48-.11,6.34,6.34,0,0,1,.73,0,6.7,6.7,0,0,1,.76,0,1.72,1.72,0,0,1,.46.11.52.52,0,0,1,.24.18.44.44,0,0,1,.07.25V303a10.09,10.09,0,0,1,.94-1.18,5.32,5.32,0,0,1,.84-.73,2.64,2.64,0,0,1,.8-.38,3.08,3.08,0,0,1,.8-.11l.4,0,.44.07a3,3,0,0,1,.4.11.79.79,0,0,1,.25.14.45.45,0,0,1,.11.16,1.17,1.17,0,0,1,.06.24,3.44,3.44,0,0,1,0,.45C606.3,302,606.3,302.27,606.3,302.61Z"/><path class="cls-4" d="M527.66,342.44a1.39,1.39,0,0,1-.29,1,1,1,0,0,1-.81.31h-7.74a5.29,5.29,0,0,0,.19,1.47,2.82,2.82,0,0,0,.61,1.13,2.68,2.68,0,0,0,1.08.71,4.65,4.65,0,0,0,1.59.24,8.89,8.89,0,0,0,1.65-.14,10.89,10.89,0,0,0,1.23-.3q.52-.16.86-.3a1.61,1.61,0,0,1,.56-.14.42.42,0,0,1,.21.05.37.37,0,0,1,.14.18,1.24,1.24,0,0,1,.08.36c0,.16,0,.35,0,.59s0,.39,0,.53a3.29,3.29,0,0,1,0,.38.89.89,0,0,1-.08.26,1,1,0,0,1-.15.21,1.72,1.72,0,0,1-.51.27,8,8,0,0,1-1.05.33,14.72,14.72,0,0,1-1.47.29A12.29,12.29,0,0,1,522,350a9.35,9.35,0,0,1-3-.43,5.3,5.3,0,0,1-2.13-1.3,5.39,5.39,0,0,1-1.28-2.2,10.27,10.27,0,0,1-.42-3.11,9.89,9.89,0,0,1,.44-3.06,6.42,6.42,0,0,1,1.28-2.31,5.52,5.52,0,0,1,2-1.45,7.9,7.9,0,0,1,5.44,0,4.91,4.91,0,0,1,1.86,1.3,5.26,5.26,0,0,1,1.07,2,8.58,8.58,0,0,1,.34,2.48Zm-3.48-1a3.69,3.69,0,0,0-.61-2.37,2.34,2.34,0,0,0-2-.86,2.61,2.61,0,0,0-1.19.26,2.44,2.44,0,0,0-.84.69,3.13,3.13,0,0,0-.51,1,5.12,5.12,0,0,0-.21,1.26Z"/><path class="cls-4" d="M550.83,349.17a.39.39,0,0,1-.08.25.63.63,0,0,1-.29.18,2.43,2.43,0,0,1-.54.11c-.23,0-.52,0-.87,0s-.66,0-.88,0a2.57,2.57,0,0,1-.55-.11.58.58,0,0,1-.28-.18.41.41,0,0,1-.08-.25v-7.54a5.2,5.2,0,0,0-.12-1.17,2.76,2.76,0,0,0-.37-.91,1.78,1.78,0,0,0-.63-.58,1.87,1.87,0,0,0-.91-.21,2.14,2.14,0,0,0-1.3.5,8.67,8.67,0,0,0-1.43,1.45v8.45a.39.39,0,0,1-.08.25.64.64,0,0,1-.29.18,2.58,2.58,0,0,1-.55.11c-.23,0-.51,0-.86,0s-.64,0-.87,0a2.56,2.56,0,0,1-.55-.11.63.63,0,0,1-.29-.18.38.38,0,0,1-.09-.25v-7.54a5.2,5.2,0,0,0-.12-1.17,2.86,2.86,0,0,0-.36-.91,1.7,1.7,0,0,0-.63-.58,1.88,1.88,0,0,0-.9-.21,2.16,2.16,0,0,0-1.31.5,8.26,8.26,0,0,0-1.41,1.45v8.45a.38.38,0,0,1-.09.25.63.63,0,0,1-.29.18,2.56,2.56,0,0,1-.55.11c-.23,0-.52,0-.87,0s-.64,0-.87,0a2.56,2.56,0,0,1-.55-.11.64.64,0,0,1-.29-.18.39.39,0,0,1-.08-.25V336.45a.44.44,0,0,1,.07-.25.51.51,0,0,1,.26-.18,2.05,2.05,0,0,1,.48-.11,6.34,6.34,0,0,1,.73,0,6.7,6.7,0,0,1,.76,0,1.72,1.72,0,0,1,.46.11.52.52,0,0,1,.24.18.44.44,0,0,1,.07.25v1.47a8.41,8.41,0,0,1,2.1-1.71,4.52,4.52,0,0,1,2.19-.57,5.64,5.64,0,0,1,1.41.16,4,4,0,0,1,1.12.47,3.52,3.52,0,0,1,.85.73,4.3,4.3,0,0,1,.6,1,10.67,10.67,0,0,1,1.12-1.05,6.52,6.52,0,0,1,1.08-.72,5,5,0,0,1,1.07-.41,4.44,4.44,0,0,1,1.09-.13,4.83,4.83,0,0,1,2.14.43,3.75,3.75,0,0,1,1.4,1.16,4.67,4.67,0,0,1,.76,1.72,9.22,9.22,0,0,1,.23,2.08Z"/><path class="cls-4" d="M565.19,349.21a.38.38,0,0,1-.14.31,1,1,0,0,1-.45.16,6.07,6.07,0,0,1-.91.05,6.16,6.16,0,0,1-.93-.05.8.8,0,0,1-.41-.16.41.41,0,0,1-.12-.31v-1a5.76,5.76,0,0,1-1.79,1.31,5.19,5.19,0,0,1-2.23.47,6.24,6.24,0,0,1-1.86-.26,4.19,4.19,0,0,1-1.47-.78,3.52,3.52,0,0,1-1-1.29,4.39,4.39,0,0,1-.34-1.8,4.06,4.06,0,0,1,.43-1.93,3.54,3.54,0,0,1,1.3-1.35,6.45,6.45,0,0,1,2.15-.79,15.34,15.34,0,0,1,3-.26h1.24v-.77a4.07,4.07,0,0,0-.12-1,1.74,1.74,0,0,0-.4-.75,1.64,1.64,0,0,0-.74-.44,4,4,0,0,0-1.15-.14,5.86,5.86,0,0,0-1.6.2,9.17,9.17,0,0,0-1.25.44q-.54.24-.91.44a1.32,1.32,0,0,1-.59.2.43.43,0,0,1-.28-.1.74.74,0,0,1-.2-.29,2,2,0,0,1-.12-.46,3.87,3.87,0,0,1,0-.6,2.74,2.74,0,0,1,.07-.7,1.07,1.07,0,0,1,.27-.46,2.67,2.67,0,0,1,.7-.46,8.22,8.22,0,0,1,1.17-.46,10.91,10.91,0,0,1,1.46-.35,10.76,10.76,0,0,1,4.19.16,4.31,4.31,0,0,1,1.75.9,3.51,3.51,0,0,1,1,1.56,7.3,7.3,0,0,1,.31,2.27Zm-3.52-5.45H560.3a7.31,7.31,0,0,0-1.48.13,2.84,2.84,0,0,0-1,.38,1.59,1.59,0,0,0-.56.62,1.86,1.86,0,0,0-.18.83,1.6,1.6,0,0,0,.51,1.25,2,2,0,0,0,1.4.46,2.63,2.63,0,0,0,1.39-.38,5.78,5.78,0,0,0,1.29-1.13Z"/><path class="cls-4" d="M572.63,332.15a2,2,0,0,1-.44,1.5,3.49,3.49,0,0,1-3.27,0,2,2,0,0,1-.42-1.44,2.06,2.06,0,0,1,.43-1.5,3.44,3.44,0,0,1,3.27,0A2,2,0,0,1,572.63,332.15Zm-.27,17a.38.38,0,0,1-.09.25.63.63,0,0,1-.29.18,2.56,2.56,0,0,1-.55.11c-.23,0-.52,0-.87,0s-.64,0-.87,0a2.56,2.56,0,0,1-.55-.11.64.64,0,0,1-.29-.18.39.39,0,0,1-.08-.25V336.48a.39.39,0,0,1,.08-.25.68.68,0,0,1,.29-.18,2.4,2.4,0,0,1,.55-.12,8.81,8.81,0,0,1,1.74,0,2.4,2.4,0,0,1,.55.12.67.67,0,0,1,.29.18.39.39,0,0,1,.09.25Z"/><path class="cls-4" d="M579.52,349.17a.38.38,0,0,1-.09.25.63.63,0,0,1-.29.18,2.56,2.56,0,0,1-.55.11c-.23,0-.52,0-.87,0s-.64,0-.87,0a2.56,2.56,0,0,1-.55-.11.64.64,0,0,1-.29-.18.39.39,0,0,1-.08-.25V330.42a.42.42,0,0,1,.08-.26.66.66,0,0,1,.29-.19,2.46,2.46,0,0,1,.55-.12,8.81,8.81,0,0,1,1.74,0,2.46,2.46,0,0,1,.55.12.65.65,0,0,1,.29.19.42.42,0,0,1,.09.26Z"/><g class="cls-8"><path class="cls-4" d="M550,109.75a8.67,8.67,0,0,1-.5,3,6,6,0,0,1-1.47,2.27,6.38,6.38,0,0,1-2.39,1.41,10.17,10.17,0,0,1-3.28.49,10.41,10.41,0,0,1-3.12-.43,6.07,6.07,0,0,1-2.34-1.32,5.77,5.77,0,0,1-1.46-2.2,8.6,8.6,0,0,1-.51-3.09V98.69a.42.42,0,0,1,.09-.26.61.61,0,0,1,.31-.18,3.09,3.09,0,0,1,.58-.11,8,8,0,0,1,.91,0,7.8,7.8,0,0,1,.9,0,3,3,0,0,1,.57.11.66.66,0,0,1,.31.18.4.4,0,0,1,.09.26v10.89a6,6,0,0,0,.27,1.9,3.51,3.51,0,0,0,.78,1.33,3.22,3.22,0,0,0,1.21.79,4.47,4.47,0,0,0,1.57.26,4.34,4.34,0,0,0,1.58-.27,3.15,3.15,0,0,0,1.18-.79,3.57,3.57,0,0,0,.75-1.28,5.28,5.28,0,0,0,.26-1.73V98.69a.42.42,0,0,1,.09-.26.6.6,0,0,1,.3-.18,3,3,0,0,1,.58-.11,8,8,0,0,1,.91,0,7.6,7.6,0,0,1,.89,0,3,3,0,0,1,.56.11.61.61,0,0,1,.3.18.42.42,0,0,1,.09.26Z"/><path class="cls-4" d="M566.56,109.6a11.86,11.86,0,0,1-.36,3.06,6.91,6.91,0,0,1-1.06,2.32,4.71,4.71,0,0,1-1.74,1.47A5.31,5.31,0,0,1,561,117a4.53,4.53,0,0,1-1-.11,4,4,0,0,1-.9-.33,5.51,5.51,0,0,1-.86-.55,10.27,10.27,0,0,1-.88-.77v6a.42.42,0,0,1-.09.26.64.64,0,0,1-.29.19,2.46,2.46,0,0,1-.55.12,8.81,8.81,0,0,1-1.74,0,2.46,2.46,0,0,1-.55-.12.65.65,0,0,1-.29-.19.42.42,0,0,1-.08-.26V103.43a.44.44,0,0,1,.07-.25.51.51,0,0,1,.25-.18,1.94,1.94,0,0,1,.47-.11,6.32,6.32,0,0,1,.73,0,6.19,6.19,0,0,1,.72,0,1.94,1.94,0,0,1,.47.11.52.52,0,0,1,.25.18.44.44,0,0,1,.07.25v1.5a12.89,12.89,0,0,1,1.09-1,6.57,6.57,0,0,1,1.09-.73,4.92,4.92,0,0,1,1.15-.43,5.34,5.34,0,0,1,1.26-.14,4.81,4.81,0,0,1,2.38.55,4.5,4.5,0,0,1,1.6,1.5,6.79,6.79,0,0,1,.91,2.22A12.36,12.36,0,0,1,566.56,109.6Zm-3.73.26a9.82,9.82,0,0,0-.12-1.56,4.64,4.64,0,0,0-.41-1.33,2.56,2.56,0,0,0-.77-.93,2,2,0,0,0-1.19-.35,2.39,2.39,0,0,0-.71.11,2.74,2.74,0,0,0-.71.35,5,5,0,0,0-.75.63,8.87,8.87,0,0,0-.81,1v4.19a8.35,8.35,0,0,0,1.44,1.48,2.32,2.32,0,0,0,1.42.52,2,2,0,0,0,1.19-.36,2.75,2.75,0,0,0,.8-.93,4.71,4.71,0,0,0,.46-1.3A7.2,7.2,0,0,0,562.82,109.85Z"/><path class="cls-4" d="M583.54,114.88a4.53,4.53,0,0,1-.08,1,1,1,0,0,1-.21.47,1.13,1.13,0,0,1-.38.24,3.59,3.59,0,0,1-.58.19,6.17,6.17,0,0,1-.73.12,7.32,7.32,0,0,1-.79,0,5.71,5.71,0,0,1-1.85-.27,3.08,3.08,0,0,1-1.3-.83,3.47,3.47,0,0,1-.75-1.42,7.45,7.45,0,0,1-.24-2v-6.51h-1.52c-.18,0-.32-.11-.41-.33a3.11,3.11,0,0,1-.14-1.12,5.84,5.84,0,0,1,0-.7,1.65,1.65,0,0,1,.11-.45.52.52,0,0,1,.18-.24.44.44,0,0,1,.25-.07h1.51V100.1a.44.44,0,0,1,.08-.26.59.59,0,0,1,.29-.19,2.27,2.27,0,0,1,.56-.11,8.5,8.5,0,0,1,.86,0,8.66,8.66,0,0,1,.88,0,2.15,2.15,0,0,1,.55.11.65.65,0,0,1,.29.19.42.42,0,0,1,.09.26v2.84H583a.44.44,0,0,1,.25.07.53.53,0,0,1,.18.24,1.7,1.7,0,0,1,.11.45,5.82,5.82,0,0,1,0,.7,3.13,3.13,0,0,1-.14,1.12c-.1.22-.23.33-.41.33h-2.78v6a3,3,0,0,0,.33,1.56,1.27,1.27,0,0,0,1.17.52,2.34,2.34,0,0,0,.51,0l.41-.11.3-.11a.58.58,0,0,1,.22,0,.3.3,0,0,1,.16,0,.34.34,0,0,1,.12.2,3.08,3.08,0,0,1,.08.41A5,5,0,0,1,583.54,114.88Z"/><path class="cls-4" d="M598.71,109.65a9.71,9.71,0,0,1-.43,3,6.24,6.24,0,0,1-1.3,2.31,5.76,5.76,0,0,1-2.18,1.5,8.18,8.18,0,0,1-3.06.53,8.39,8.39,0,0,1-3-.47,5.3,5.3,0,0,1-2.08-1.37,5.62,5.62,0,0,1-1.23-2.21,10.3,10.3,0,0,1-.4-3,9.63,9.63,0,0,1,.43-3,6.27,6.27,0,0,1,1.3-2.31,5.82,5.82,0,0,1,2.17-1.49,8.12,8.12,0,0,1,3.06-.53,8.56,8.56,0,0,1,3,.46,5.19,5.19,0,0,1,2.07,1.36,5.67,5.67,0,0,1,1.22,2.21A10.32,10.32,0,0,1,598.71,109.65Zm-3.69.14a9.34,9.34,0,0,0-.15-1.73,4.07,4.07,0,0,0-.51-1.37,2.54,2.54,0,0,0-.95-.91,3,3,0,0,0-1.49-.33,3.15,3.15,0,0,0-1.4.29,2.51,2.51,0,0,0-1,.86A4.07,4.07,0,0,0,589,108a7.63,7.63,0,0,0-.19,1.8,8.92,8.92,0,0,0,.16,1.73,4.29,4.29,0,0,0,.51,1.38,2.41,2.41,0,0,0,.95.91,3.11,3.11,0,0,0,1.48.32,3.18,3.18,0,0,0,1.41-.29,2.53,2.53,0,0,0,1-.85,3.92,3.92,0,0,0,.57-1.35A7.91,7.91,0,0,0,595,109.8Z"/><path class="cls-4" d="M615.67,114.88a4.53,4.53,0,0,1-.08,1,1,1,0,0,1-.21.47,1.13,1.13,0,0,1-.38.24,3.59,3.59,0,0,1-.58.19,6.17,6.17,0,0,1-.73.12,7.32,7.32,0,0,1-.79,0,5.71,5.71,0,0,1-1.85-.27,3.08,3.08,0,0,1-1.3-.83,3.47,3.47,0,0,1-.75-1.42,7.45,7.45,0,0,1-.24-2v-6.51h-1.52c-.18,0-.32-.11-.41-.33a3.11,3.11,0,0,1-.14-1.12,5.84,5.84,0,0,1,0-.7,1.65,1.65,0,0,1,.11-.45A.52.52,0,0,1,607,103a.44.44,0,0,1,.25-.07h1.51V100.1a.44.44,0,0,1,.08-.26.59.59,0,0,1,.29-.19,2.27,2.27,0,0,1,.56-.11,8.5,8.5,0,0,1,.86,0,8.66,8.66,0,0,1,.88,0,2.15,2.15,0,0,1,.55.11.65.65,0,0,1,.29.19.42.42,0,0,1,.09.26v2.84h2.76a.44.44,0,0,1,.25.07.53.53,0,0,1,.18.24,1.7,1.7,0,0,1,.11.45,5.82,5.82,0,0,1,0,.7,3.13,3.13,0,0,1-.14,1.12c-.1.22-.23.33-.41.33h-2.78v6a3,3,0,0,0,.33,1.56,1.27,1.27,0,0,0,1.17.52,2.34,2.34,0,0,0,.51,0l.41-.11.3-.11a.58.58,0,0,1,.22,0,.3.3,0,0,1,.16,0,.34.34,0,0,1,.12.2,3.08,3.08,0,0,1,.08.41A5,5,0,0,1,615.67,114.88Z"/><path class="cls-4" d="M637.72,103.4a2.14,2.14,0,0,1,0,.38c0,.15-.08.37-.16.66l-3.39,11.5a1.2,1.2,0,0,1-.19.39.75.75,0,0,1-.35.24,2.53,2.53,0,0,1-.67.11c-.29,0-.67,0-1.13,0s-.85,0-1.14,0a3,3,0,0,1-.69-.12.74.74,0,0,1-.36-.24,1,1,0,0,1-.17-.38l-2.14-7.72,0-.13,0,.13-2,7.72a1.11,1.11,0,0,1-.16.39.71.71,0,0,1-.36.24,2.88,2.88,0,0,1-.7.11q-.44,0-1.14,0t-1.15,0a2.92,2.92,0,0,1-.68-.12.74.74,0,0,1-.36-.24,1,1,0,0,1-.17-.38l-3.36-11.5a4.8,4.8,0,0,1-.16-.65,2.74,2.74,0,0,1,0-.39.41.41,0,0,1,.08-.25.54.54,0,0,1,.29-.17,2.7,2.7,0,0,1,.56-.09c.23,0,.53,0,.88,0s.69,0,.93,0a2.33,2.33,0,0,1,.56.1.53.53,0,0,1,.28.19,1,1,0,0,1,.12.29l2.52,9.34,0,.17,0-.17,2.37-9.34a.81.81,0,0,1,.14-.29A.62.62,0,0,1,626,103a2,2,0,0,1,.52-.1q.34,0,.86,0a8.36,8.36,0,0,1,.86,0,2.71,2.71,0,0,1,.52.1.54.54,0,0,1,.27.17.81.81,0,0,1,.12.25l2.54,9.41,0,.16,0-.17,2.42-9.34a.69.69,0,0,1,.11-.29.57.57,0,0,1,.29-.19,2.27,2.27,0,0,1,.54-.1c.23,0,.52,0,.87,0s.64,0,.86,0a2.38,2.38,0,0,1,.53.09.49.49,0,0,1,.26.17A.44.44,0,0,1,637.72,103.4Z"/><path class="cls-4" d="M652.63,109.65a9.71,9.71,0,0,1-.43,3,6.24,6.24,0,0,1-1.3,2.31,5.76,5.76,0,0,1-2.18,1.5,8.18,8.18,0,0,1-3.06.53,8.39,8.39,0,0,1-3-.47,5.3,5.3,0,0,1-2.08-1.37,5.62,5.62,0,0,1-1.23-2.21,10.3,10.3,0,0,1-.4-3,9.63,9.63,0,0,1,.43-3,6.27,6.27,0,0,1,1.3-2.31,5.82,5.82,0,0,1,2.17-1.49,8.12,8.12,0,0,1,3.06-.53,8.56,8.56,0,0,1,3,.46,5.19,5.19,0,0,1,2.07,1.36,5.67,5.67,0,0,1,1.22,2.21A10.32,10.32,0,0,1,652.63,109.65Zm-3.69.14a9.34,9.34,0,0,0-.15-1.73,4.07,4.07,0,0,0-.51-1.37,2.54,2.54,0,0,0-.95-.91,3,3,0,0,0-1.49-.33,3.15,3.15,0,0,0-1.4.29,2.51,2.51,0,0,0-1,.86,4.07,4.07,0,0,0-.58,1.35,7.63,7.63,0,0,0-.19,1.8,8.92,8.92,0,0,0,.16,1.73,4.29,4.29,0,0,0,.51,1.38,2.41,2.41,0,0,0,.95.91,3.11,3.11,0,0,0,1.48.32,3.18,3.18,0,0,0,1.41-.29,2.53,2.53,0,0,0,1-.85,3.92,3.92,0,0,0,.57-1.35A7.91,7.91,0,0,0,648.93,109.8Z"/><path class="cls-4" d="M682.28,116.14a.39.39,0,0,1-.08.25.63.63,0,0,1-.29.18,2.43,2.43,0,0,1-.54.11c-.23,0-.52,0-.87,0s-.66,0-.88,0a2.57,2.57,0,0,1-.55-.11.58.58,0,0,1-.28-.18.41.41,0,0,1-.08-.25V108.6a5.2,5.2,0,0,0-.12-1.17,2.76,2.76,0,0,0-.37-.91,1.78,1.78,0,0,0-.63-.58,1.87,1.87,0,0,0-.91-.21,2.14,2.14,0,0,0-1.3.5,8.67,8.67,0,0,0-1.43,1.45v8.45a.39.39,0,0,1-.08.25.64.64,0,0,1-.29.18,2.58,2.58,0,0,1-.55.11c-.23,0-.51,0-.86,0s-.64,0-.87,0a2.56,2.56,0,0,1-.55-.11.63.63,0,0,1-.29-.18.38.38,0,0,1-.09-.25V108.6a5.2,5.2,0,0,0-.12-1.17,2.86,2.86,0,0,0-.36-.91,1.7,1.7,0,0,0-.63-.58,1.88,1.88,0,0,0-.9-.21,2.16,2.16,0,0,0-1.31.5,8.26,8.26,0,0,0-1.41,1.45v8.45a.38.38,0,0,1-.09.25.63.63,0,0,1-.29.18,2.56,2.56,0,0,1-.55.11c-.23,0-.52,0-.87,0s-.64,0-.87,0a2.56,2.56,0,0,1-.55-.11.64.64,0,0,1-.29-.18.39.39,0,0,1-.08-.25V103.43a.44.44,0,0,1,.07-.25.51.51,0,0,1,.26-.18,2.05,2.05,0,0,1,.48-.11,6.34,6.34,0,0,1,.73,0,6.7,6.7,0,0,1,.76,0,1.72,1.72,0,0,1,.46.11.52.52,0,0,1,.24.18.44.44,0,0,1,.07.25v1.47a8.41,8.41,0,0,1,2.1-1.71,4.52,4.52,0,0,1,2.19-.57,5.64,5.64,0,0,1,1.41.16,4,4,0,0,1,1.12.47,3.52,3.52,0,0,1,.85.73,4.3,4.3,0,0,1,.6,1,10.67,10.67,0,0,1,1.12-1.05,6.52,6.52,0,0,1,1.08-.72,5,5,0,0,1,1.07-.41,4.44,4.44,0,0,1,1.09-.13,4.83,4.83,0,0,1,2.14.43,3.75,3.75,0,0,1,1.4,1.16,4.67,4.67,0,0,1,.76,1.72,9.22,9.22,0,0,1,.23,2.08Z"/><path class="cls-4" d="M698.66,109.65a9.71,9.71,0,0,1-.43,3,6.24,6.24,0,0,1-1.3,2.31,5.76,5.76,0,0,1-2.18,1.5,8.18,8.18,0,0,1-3.06.53,8.39,8.39,0,0,1-3-.47,5.3,5.3,0,0,1-2.08-1.37,5.62,5.62,0,0,1-1.23-2.21,10.3,10.3,0,0,1-.4-3,9.63,9.63,0,0,1,.43-3,6.27,6.27,0,0,1,1.3-2.31,5.82,5.82,0,0,1,2.17-1.49,8.12,8.12,0,0,1,3.06-.53,8.56,8.56,0,0,1,3,.46,5.19,5.19,0,0,1,2.07,1.36,5.67,5.67,0,0,1,1.22,2.21A10.32,10.32,0,0,1,698.66,109.65Zm-3.69.14a9.34,9.34,0,0,0-.15-1.73,4.07,4.07,0,0,0-.51-1.37,2.54,2.54,0,0,0-.95-.91,3,3,0,0,0-1.49-.33,3.15,3.15,0,0,0-1.4.29,2.51,2.51,0,0,0-1,.86,4.07,4.07,0,0,0-.58,1.35,7.63,7.63,0,0,0-.19,1.8,8.92,8.92,0,0,0,.16,1.73,4.29,4.29,0,0,0,.51,1.38,2.41,2.41,0,0,0,.95.91,3.11,3.11,0,0,0,1.48.32,3.18,3.18,0,0,0,1.41-.29,2.53,2.53,0,0,0,1-.85,3.92,3.92,0,0,0,.57-1.35A7.91,7.91,0,0,0,695,109.8Z"/><path class="cls-4" d="M713.64,116.14a.39.39,0,0,1-.08.25.63.63,0,0,1-.29.18,2.45,2.45,0,0,1-.55.11c-.23,0-.52,0-.86,0s-.64,0-.88,0a2.44,2.44,0,0,1-.55-.11.62.62,0,0,1-.29-.18.38.38,0,0,1-.09-.25v-7.25a6.14,6.14,0,0,0-.13-1.45,2.89,2.89,0,0,0-.39-.91,1.75,1.75,0,0,0-.66-.58,2.08,2.08,0,0,0-.95-.21,2.37,2.37,0,0,0-1.38.5,7.47,7.47,0,0,0-1.45,1.45v8.45a.38.38,0,0,1-.09.25.63.63,0,0,1-.29.18,2.56,2.56,0,0,1-.55.11c-.23,0-.52,0-.87,0s-.64,0-.87,0a2.56,2.56,0,0,1-.55-.11.64.64,0,0,1-.29-.18.39.39,0,0,1-.08-.25V103.43a.44.44,0,0,1,.07-.25.51.51,0,0,1,.26-.18,2.05,2.05,0,0,1,.48-.11,6.34,6.34,0,0,1,.73,0,6.7,6.7,0,0,1,.76,0,1.72,1.72,0,0,1,.46.11.52.52,0,0,1,.24.18.44.44,0,0,1,.07.25v1.47a8.08,8.08,0,0,1,2.14-1.71,4.85,4.85,0,0,1,2.27-.57,5,5,0,0,1,2.19.43,3.83,3.83,0,0,1,1.44,1.16,4.7,4.7,0,0,1,.79,1.72,10,10,0,0,1,.24,2.37Z"/><path class="cls-4" d="M724.42,114.88a4.53,4.53,0,0,1-.08,1,1,1,0,0,1-.21.47,1.13,1.13,0,0,1-.38.24,3.59,3.59,0,0,1-.58.19,6.17,6.17,0,0,1-.73.12,7.32,7.32,0,0,1-.79,0,5.71,5.71,0,0,1-1.85-.27,3.08,3.08,0,0,1-1.3-.83,3.47,3.47,0,0,1-.75-1.42,7.45,7.45,0,0,1-.24-2v-6.51H716c-.18,0-.32-.11-.41-.33a3.11,3.11,0,0,1-.14-1.12,5.84,5.84,0,0,1,0-.7,1.65,1.65,0,0,1,.11-.45.52.52,0,0,1,.18-.24.44.44,0,0,1,.25-.07h1.51V100.1a.44.44,0,0,1,.08-.26.59.59,0,0,1,.29-.19,2.27,2.27,0,0,1,.56-.11,8.5,8.5,0,0,1,.86,0,8.66,8.66,0,0,1,.88,0,2.15,2.15,0,0,1,.55.11.65.65,0,0,1,.29.19.42.42,0,0,1,.09.26v2.84h2.76a.44.44,0,0,1,.25.07.53.53,0,0,1,.18.24,1.7,1.7,0,0,1,.11.45,5.82,5.82,0,0,1,0,.7,3.13,3.13,0,0,1-.14,1.12c-.1.22-.23.33-.41.33h-2.78v6a3,3,0,0,0,.33,1.56,1.27,1.27,0,0,0,1.17.52,2.34,2.34,0,0,0,.51,0l.41-.11.3-.11a.58.58,0,0,1,.22,0,.3.3,0,0,1,.16,0,.34.34,0,0,1,.12.2,3.08,3.08,0,0,1,.08.41A5,5,0,0,1,724.42,114.88Z"/><path class="cls-4" d="M739.15,116.14a.39.39,0,0,1-.08.25.63.63,0,0,1-.29.18,2.45,2.45,0,0,1-.55.11c-.23,0-.52,0-.86,0s-.64,0-.88,0a2.44,2.44,0,0,1-.55-.11.62.62,0,0,1-.29-.18.38.38,0,0,1-.09-.25v-7.25a6.14,6.14,0,0,0-.13-1.45,2.89,2.89,0,0,0-.39-.91,1.75,1.75,0,0,0-.66-.58,2.08,2.08,0,0,0-.95-.21,2.37,2.37,0,0,0-1.38.5,7.47,7.47,0,0,0-1.45,1.45v8.45a.38.38,0,0,1-.09.25.63.63,0,0,1-.29.18,2.56,2.56,0,0,1-.55.11c-.23,0-.52,0-.87,0s-.64,0-.87,0a2.56,2.56,0,0,1-.55-.11.64.64,0,0,1-.29-.18.39.39,0,0,1-.08-.25V97.4a.42.42,0,0,1,.08-.26.66.66,0,0,1,.29-.19,2.46,2.46,0,0,1,.55-.12,8.81,8.81,0,0,1,1.74,0,2.46,2.46,0,0,1,.55.12.65.65,0,0,1,.29.19.42.42,0,0,1,.09.26v7a6.89,6.89,0,0,1,1.89-1.36,4.69,4.69,0,0,1,2-.45,5,5,0,0,1,2.19.43,3.8,3.8,0,0,1,1.44,1.17,4.77,4.77,0,0,1,.79,1.73,10.23,10.23,0,0,1,.24,2.4Z"/><path class="cls-4" d="M751.62,112.55a4.27,4.27,0,0,1-.41,1.91,3.79,3.79,0,0,1-1.15,1.38,5.16,5.16,0,0,1-1.75.83,8.25,8.25,0,0,1-2.19.28,8.36,8.36,0,0,1-1.36-.11,8.2,8.2,0,0,1-1.16-.27,6,6,0,0,1-.86-.33,2.11,2.11,0,0,1-.5-.32,1,1,0,0,1-.24-.47,4,4,0,0,1-.09-.95,5.93,5.93,0,0,1,0-.66,1.67,1.67,0,0,1,.08-.4.38.38,0,0,1,.14-.2.42.42,0,0,1,.21,0,1.07,1.07,0,0,1,.46.18c.2.12.46.25.76.39a8.16,8.16,0,0,0,1.06.4,4.69,4.69,0,0,0,1.38.19,3.4,3.4,0,0,0,.86-.1,2.19,2.19,0,0,0,.66-.29,1.21,1.21,0,0,0,.42-.47,1.45,1.45,0,0,0,.14-.66,1.09,1.09,0,0,0-.26-.73,2.36,2.36,0,0,0-.7-.53,7.87,7.87,0,0,0-1-.43q-.55-.2-1.13-.44a10.37,10.37,0,0,1-1.12-.56,4.28,4.28,0,0,1-1-.77,3.51,3.51,0,0,1-.7-1.1,4,4,0,0,1-.26-1.54,3.91,3.91,0,0,1,.36-1.67,3.64,3.64,0,0,1,1-1.3,4.86,4.86,0,0,1,1.63-.84,7.27,7.27,0,0,1,2.16-.3,7.79,7.79,0,0,1,1.16.08,8.71,8.71,0,0,1,1,.21,4.93,4.93,0,0,1,.77.28,2.56,2.56,0,0,1,.45.26.72.72,0,0,1,.19.21.92.92,0,0,1,.09.26c0,.1,0,.22,0,.37s0,.33,0,.55,0,.47,0,.63a1.67,1.67,0,0,1-.07.38.35.35,0,0,1-.14.19.39.39,0,0,1-.2,0,1,1,0,0,1-.4-.15,7.36,7.36,0,0,0-.68-.32,8,8,0,0,0-.94-.32,4.53,4.53,0,0,0-1.22-.15,3.14,3.14,0,0,0-.84.1,1.59,1.59,0,0,0-.58.29,1.21,1.21,0,0,0-.34.43,1.26,1.26,0,0,0-.11.53,1.06,1.06,0,0,0,.27.74,2.49,2.49,0,0,0,.71.53,8.05,8.05,0,0,0,1,.43q.56.2,1.14.43a10.32,10.32,0,0,1,1.14.55,4.29,4.29,0,0,1,1,.77,3.54,3.54,0,0,1,.71,1.09A3.81,3.81,0,0,1,751.62,112.55Z"/></g><path class="cls-4" d="M702.3,314.14a.55.55,0,0,1-.06.26.45.45,0,0,1-.27.18,2.65,2.65,0,0,1-.63.1q-.41,0-1.13,0t-1,0a2.12,2.12,0,0,1-.56-.11.61.61,0,0,1-.29-.2,1.14,1.14,0,0,1-.14-.29L696.61,310q-.3-.7-.58-1.24a3.94,3.94,0,0,0-.63-.91,2.32,2.32,0,0,0-.8-.55,2.8,2.8,0,0,0-1.05-.18h-1.17v7a.39.39,0,0,1-.09.26.65.65,0,0,1-.31.19,3,3,0,0,1-.57.11,9.63,9.63,0,0,1-1.82,0,3,3,0,0,1-.58-.11.61.61,0,0,1-.3-.19.42.42,0,0,1-.08-.26V297.36a1.14,1.14,0,0,1,.32-.91,1.17,1.17,0,0,1,.79-.28h4.77q.73,0,1.2,0l.86.07a7.75,7.75,0,0,1,2,.54,4.79,4.79,0,0,1,1.51,1,4.18,4.18,0,0,1,.95,1.47,5.37,5.37,0,0,1,.33,1.95,5.73,5.73,0,0,1-.24,1.69,4.35,4.35,0,0,1-.69,1.36,4.53,4.53,0,0,1-1.13,1,6.08,6.08,0,0,1-1.53.71,4.24,4.24,0,0,1,.78.48,4.13,4.13,0,0,1,.68.69,6.67,6.67,0,0,1,.61.93,12,12,0,0,1,.56,1.18l1.55,3.63q.21.54.29.79A1.57,1.57,0,0,1,702.3,314.14Zm-4.83-12.51a2.74,2.74,0,0,0-.41-1.54,2.25,2.25,0,0,0-1.35-.88,5.08,5.08,0,0,0-.65-.11,9.14,9.14,0,0,0-1,0h-1.68v5.23h1.91a4.55,4.55,0,0,0,1.4-.19,2.79,2.79,0,0,0,1-.54,2.23,2.23,0,0,0,.6-.83A2.83,2.83,0,0,0,697.46,301.63Z"/><path class="cls-4" d="M716.15,307.41a1.39,1.39,0,0,1-.29,1,1,1,0,0,1-.81.31h-7.74a5.29,5.29,0,0,0,.19,1.47,2.82,2.82,0,0,0,.61,1.13,2.68,2.68,0,0,0,1.08.71,4.65,4.65,0,0,0,1.59.24,8.89,8.89,0,0,0,1.65-.14,10.89,10.89,0,0,0,1.23-.3q.52-.16.86-.3a1.61,1.61,0,0,1,.56-.14.42.42,0,0,1,.21.05.37.37,0,0,1,.14.18,1.24,1.24,0,0,1,.08.36c0,.16,0,.35,0,.59s0,.39,0,.53a3.29,3.29,0,0,1,0,.38.89.89,0,0,1-.08.26,1,1,0,0,1-.15.21,1.72,1.72,0,0,1-.51.27,8,8,0,0,1-1.05.33,14.72,14.72,0,0,1-1.47.29,12.29,12.29,0,0,1-1.77.12,9.35,9.35,0,0,1-3-.43,5.3,5.3,0,0,1-2.13-1.3,5.39,5.39,0,0,1-1.28-2.2,10.27,10.27,0,0,1-.42-3.11,9.89,9.89,0,0,1,.44-3.06,6.42,6.42,0,0,1,1.28-2.31,5.52,5.52,0,0,1,2-1.45,7.9,7.9,0,0,1,5.44,0,4.91,4.91,0,0,1,1.86,1.3,5.26,5.26,0,0,1,1.07,2,8.58,8.58,0,0,1,.34,2.48Zm-3.48-1a3.69,3.69,0,0,0-.61-2.37,2.34,2.34,0,0,0-2-.86,2.61,2.61,0,0,0-1.19.26,2.44,2.44,0,0,0-.84.69,3.13,3.13,0,0,0-.51,1,5.12,5.12,0,0,0-.21,1.26Z"/><path class="cls-4" d="M739.32,314.14a.39.39,0,0,1-.08.25.63.63,0,0,1-.29.18,2.43,2.43,0,0,1-.54.11c-.23,0-.52,0-.87,0s-.66,0-.88,0a2.57,2.57,0,0,1-.55-.11.58.58,0,0,1-.28-.18.41.41,0,0,1-.08-.25V306.6a5.2,5.2,0,0,0-.12-1.17,2.76,2.76,0,0,0-.37-.91,1.78,1.78,0,0,0-.63-.58,1.87,1.87,0,0,0-.91-.21,2.14,2.14,0,0,0-1.3.5,8.67,8.67,0,0,0-1.43,1.45v8.45a.39.39,0,0,1-.08.25.64.64,0,0,1-.29.18,2.58,2.58,0,0,1-.55.11c-.23,0-.51,0-.86,0s-.64,0-.87,0a2.56,2.56,0,0,1-.55-.11.63.63,0,0,1-.29-.18.38.38,0,0,1-.09-.25V306.6a5.2,5.2,0,0,0-.12-1.17,2.86,2.86,0,0,0-.36-.91,1.7,1.7,0,0,0-.63-.58,1.88,1.88,0,0,0-.9-.21,2.16,2.16,0,0,0-1.31.5,8.26,8.26,0,0,0-1.41,1.45v8.45a.38.38,0,0,1-.09.25.63.63,0,0,1-.29.18,2.56,2.56,0,0,1-.55.11c-.23,0-.52,0-.87,0s-.64,0-.87,0a2.56,2.56,0,0,1-.55-.11.64.64,0,0,1-.29-.18.39.39,0,0,1-.08-.25V301.43a.44.44,0,0,1,.07-.25.51.51,0,0,1,.26-.18,2.05,2.05,0,0,1,.48-.11,6.34,6.34,0,0,1,.73,0,6.7,6.7,0,0,1,.76,0,1.72,1.72,0,0,1,.46.11.52.52,0,0,1,.24.18.44.44,0,0,1,.07.25v1.47a8.41,8.41,0,0,1,2.1-1.71,4.52,4.52,0,0,1,2.19-.57,5.64,5.64,0,0,1,1.41.16,4,4,0,0,1,1.12.47,3.52,3.52,0,0,1,.85.73,4.3,4.3,0,0,1,.6,1,10.67,10.67,0,0,1,1.12-1.05,6.52,6.52,0,0,1,1.08-.72,5,5,0,0,1,1.07-.41,4.44,4.44,0,0,1,1.09-.13,4.83,4.83,0,0,1,2.14.43,3.75,3.75,0,0,1,1.4,1.16,4.67,4.67,0,0,1,.76,1.72,9.22,9.22,0,0,1,.23,2.08Z"/><path class="cls-4" d="M746.71,297.12a2,2,0,0,1-.44,1.5,3.49,3.49,0,0,1-3.27,0,2,2,0,0,1-.42-1.44,2.06,2.06,0,0,1,.43-1.5,3.44,3.44,0,0,1,3.27,0A2,2,0,0,1,746.71,297.12Zm-.27,17a.38.38,0,0,1-.09.25.63.63,0,0,1-.29.18,2.56,2.56,0,0,1-.55.11c-.23,0-.52,0-.87,0s-.64,0-.87,0a2.56,2.56,0,0,1-.55-.11.64.64,0,0,1-.29-.18.39.39,0,0,1-.08-.25V301.45a.39.39,0,0,1,.08-.25.68.68,0,0,1,.29-.18,2.4,2.4,0,0,1,.55-.12,8.81,8.81,0,0,1,1.74,0,2.4,2.4,0,0,1,.55.12.67.67,0,0,1,.29.18.39.39,0,0,1,.09.25Z"/><path class="cls-4" d="M762.16,314.14a.39.39,0,0,1-.08.25.63.63,0,0,1-.29.18,2.45,2.45,0,0,1-.55.11c-.23,0-.52,0-.86,0s-.64,0-.88,0a2.44,2.44,0,0,1-.55-.11.62.62,0,0,1-.29-.18.38.38,0,0,1-.09-.25v-7.25a6.14,6.14,0,0,0-.13-1.45,2.89,2.89,0,0,0-.39-.91,1.75,1.75,0,0,0-.66-.58,2.08,2.08,0,0,0-.95-.21,2.37,2.37,0,0,0-1.38.5,7.47,7.47,0,0,0-1.45,1.45v8.45a.38.38,0,0,1-.09.25.63.63,0,0,1-.29.18,2.56,2.56,0,0,1-.55.11c-.23,0-.52,0-.87,0s-.64,0-.87,0a2.56,2.56,0,0,1-.55-.11.64.64,0,0,1-.29-.18.39.39,0,0,1-.08-.25V301.43a.44.44,0,0,1,.07-.25.51.51,0,0,1,.26-.18,2.05,2.05,0,0,1,.48-.11,6.34,6.34,0,0,1,.73,0,6.7,6.7,0,0,1,.76,0,1.72,1.72,0,0,1,.46.11.52.52,0,0,1,.24.18.44.44,0,0,1,.07.25v1.47a8.08,8.08,0,0,1,2.14-1.71,4.85,4.85,0,0,1,2.27-.57,5,5,0,0,1,2.19.43,3.83,3.83,0,0,1,1.44,1.16,4.7,4.7,0,0,1,.79,1.72,10,10,0,0,1,.24,2.37Z"/><path class="cls-4" d="M777.73,314.14a.47.47,0,0,1-.07.26.52.52,0,0,1-.24.18,1.63,1.63,0,0,1-.46.1q-.29,0-.72,0t-.74,0a1.71,1.71,0,0,1-.46-.1.57.57,0,0,1-.26-.18.44.44,0,0,1-.08-.26v-1.41a8.16,8.16,0,0,1-2.06,1.64,4.92,4.92,0,0,1-2.39.58,5,5,0,0,1-2.46-.56,4.69,4.69,0,0,1-1.64-1.52,6.59,6.59,0,0,1-.92-2.23A12.33,12.33,0,0,1,765,308a11.78,11.78,0,0,1,.36-3,6.89,6.89,0,0,1,1.06-2.31,4.71,4.71,0,0,1,1.74-1.47,5.35,5.35,0,0,1,2.39-.51,4.27,4.27,0,0,1,1.94.43,6.89,6.89,0,0,1,1.72,1.28v-6.88a.45.45,0,0,1,.08-.26.59.59,0,0,1,.29-.19,2.47,2.47,0,0,1,.55-.12,8.82,8.82,0,0,1,1.74,0,2.33,2.33,0,0,1,.54.12.63.63,0,0,1,.29.19.42.42,0,0,1,.09.26Zm-3.56-8.5a7.9,7.9,0,0,0-1.47-1.48,2.47,2.47,0,0,0-1.48-.51,2.07,2.07,0,0,0-1.2.35,2.54,2.54,0,0,0-.81.93,5,5,0,0,0-.46,1.3,7.25,7.25,0,0,0-.15,1.48,9.31,9.31,0,0,0,.13,1.55,4.87,4.87,0,0,0,.42,1.35,2.54,2.54,0,0,0,.78.95,2,2,0,0,0,1.23.36,2.44,2.44,0,0,0,.72-.11,2.71,2.71,0,0,0,.71-.35,4.81,4.81,0,0,0,.75-.63,12.6,12.6,0,0,0,.84-1Z"/><path class="cls-4" d="M793.08,307.41a1.39,1.39,0,0,1-.29,1,1,1,0,0,1-.81.31h-7.74a5.29,5.29,0,0,0,.19,1.47,2.82,2.82,0,0,0,.61,1.13,2.68,2.68,0,0,0,1.08.71,4.65,4.65,0,0,0,1.59.24,8.89,8.89,0,0,0,1.65-.14,10.89,10.89,0,0,0,1.23-.3q.52-.16.86-.3a1.61,1.61,0,0,1,.56-.14.42.42,0,0,1,.21.05.37.37,0,0,1,.14.18,1.24,1.24,0,0,1,.08.36c0,.16,0,.35,0,.59s0,.39,0,.53a3.29,3.29,0,0,1,0,.38.89.89,0,0,1-.08.26,1,1,0,0,1-.15.21,1.72,1.72,0,0,1-.51.27,8,8,0,0,1-1.05.33,14.72,14.72,0,0,1-1.47.29,12.29,12.29,0,0,1-1.77.12,9.35,9.35,0,0,1-3-.43,5.3,5.3,0,0,1-2.13-1.3A5.39,5.39,0,0,1,781,311a10.27,10.27,0,0,1-.42-3.11,9.89,9.89,0,0,1,.44-3.06,6.42,6.42,0,0,1,1.28-2.31,5.52,5.52,0,0,1,2-1.45,7.9,7.9,0,0,1,5.44,0,4.91,4.91,0,0,1,1.86,1.3,5.26,5.26,0,0,1,1.07,2,8.58,8.58,0,0,1,.34,2.48Zm-3.48-1A3.69,3.69,0,0,0,789,304a2.34,2.34,0,0,0-2-.86,2.61,2.61,0,0,0-1.19.26,2.44,2.44,0,0,0-.84.69,3.13,3.13,0,0,0-.51,1,5.12,5.12,0,0,0-.21,1.26Z"/><path class="cls-4" d="M804.2,302.61q0,.51,0,.84a2.54,2.54,0,0,1-.08.51.5.5,0,0,1-.15.26.37.37,0,0,1-.24.07.79.79,0,0,1-.26,0l-.32-.11-.39-.11a2.07,2.07,0,0,0-.47,0,1.58,1.58,0,0,0-.6.12,2.53,2.53,0,0,0-.62.38,4.56,4.56,0,0,0-.67.68,11,11,0,0,0-.75,1.05v7.92a.38.38,0,0,1-.09.25.63.63,0,0,1-.29.18,2.56,2.56,0,0,1-.55.11c-.23,0-.52,0-.87,0s-.64,0-.87,0a2.56,2.56,0,0,1-.55-.11.64.64,0,0,1-.29-.18.39.39,0,0,1-.08-.25V301.43a.44.44,0,0,1,.07-.25.51.51,0,0,1,.26-.18,2.05,2.05,0,0,1,.48-.11,6.34,6.34,0,0,1,.73,0,6.7,6.7,0,0,1,.76,0,1.72,1.72,0,0,1,.46.11.52.52,0,0,1,.24.18.44.44,0,0,1,.07.25V303a10.09,10.09,0,0,1,.94-1.18,5.32,5.32,0,0,1,.84-.73,2.64,2.64,0,0,1,.8-.38,3.08,3.08,0,0,1,.8-.11l.4,0,.44.07a3,3,0,0,1,.4.11.79.79,0,0,1,.25.14.45.45,0,0,1,.11.16,1.17,1.17,0,0,1,.06.24,3.44,3.44,0,0,1,0,.45C804.2,302,804.2,302.27,804.2,302.61Z"/><path class="cls-4" d="M732,344.12a5.69,5.69,0,0,1-.54,2.55A5.29,5.29,0,0,1,730,348.5a6.41,6.41,0,0,1-2.17,1.1,9.22,9.22,0,0,1-2.65.37,9.45,9.45,0,0,1-1.77-.16,10,10,0,0,1-1.45-.38,6.19,6.19,0,0,1-1-.46,3,3,0,0,1-.61-.43A1.06,1.06,0,0,1,720,348a4.84,4.84,0,0,1-.08-1c0-.29,0-.54,0-.74a2.1,2.1,0,0,1,.09-.48.53.53,0,0,1,.17-.26.41.41,0,0,1,.25-.08,1.19,1.19,0,0,1,.56.23,9.68,9.68,0,0,0,.93.52,8.44,8.44,0,0,0,1.36.52,6.46,6.46,0,0,0,1.83.24,4.23,4.23,0,0,0,1.23-.16,2.74,2.74,0,0,0,.92-.46,2,2,0,0,0,.58-.74,2.37,2.37,0,0,0,.2-1,1.72,1.72,0,0,0-.34-1.08,3.38,3.38,0,0,0-.89-.8,9.26,9.26,0,0,0-1.25-.66l-1.44-.65a13.37,13.37,0,0,1-1.44-.78,5.81,5.81,0,0,1-1.25-1,4.87,4.87,0,0,1-.89-1.43,5.16,5.16,0,0,1-.34-2,5.23,5.23,0,0,1,.49-2.33,4.79,4.79,0,0,1,1.33-1.67,5.66,5.66,0,0,1,2-1,8.6,8.6,0,0,1,2.4-.33,8.71,8.71,0,0,1,1.31.1,8.88,8.88,0,0,1,1.23.27,6.79,6.79,0,0,1,1,.38,2.38,2.38,0,0,1,.58.36,1,1,0,0,1,.19.24,1.17,1.17,0,0,1,.09.26,2.81,2.81,0,0,1,0,.41q0,.25,0,.62t0,.7a2.54,2.54,0,0,1-.07.47.56.56,0,0,1-.14.27.35.35,0,0,1-.25.08,1.19,1.19,0,0,1-.5-.2q-.34-.2-.84-.43A8,8,0,0,0,728,334a5.11,5.11,0,0,0-1.44-.19,3.44,3.44,0,0,0-1.07.15,2.22,2.22,0,0,0-.76.41,1.64,1.64,0,0,0-.46.63,2.07,2.07,0,0,0-.15.78,1.73,1.73,0,0,0,.33,1.06,3.21,3.21,0,0,0,.9.8,9.63,9.63,0,0,0,1.28.66l1.45.65a14.18,14.18,0,0,1,1.45.78,5.84,5.84,0,0,1,1.27,1,4.85,4.85,0,0,1,.9,1.43A5,5,0,0,1,732,344.12Z"/><path class="cls-4" d="M756.36,349.14a.44.44,0,0,1-.08.26.56.56,0,0,1-.29.19,2.75,2.75,0,0,1-.55.11,7.26,7.26,0,0,1-.87,0,7.14,7.14,0,0,1-.86,0,2.6,2.6,0,0,1-.54-.11.59.59,0,0,1-.29-.19.41.41,0,0,1-.09-.26v-15h0l-5.34,15a.69.69,0,0,1-.19.31.9.9,0,0,1-.35.19,2.4,2.4,0,0,1-.56.09l-.83,0a8.24,8.24,0,0,1-.83,0,2.45,2.45,0,0,1-.56-.11,1,1,0,0,1-.35-.19.55.55,0,0,1-.17-.27l-5.16-15h0v15a.44.44,0,0,1-.08.26.56.56,0,0,1-.29.19,2.92,2.92,0,0,1-.55.11,8.6,8.6,0,0,1-1.72,0,2.75,2.75,0,0,1-.55-.11.55.55,0,0,1-.29-.19.44.44,0,0,1-.08-.26V332.7a1.5,1.5,0,0,1,.38-1.11,1.39,1.39,0,0,1,1-.38h2.45a5.15,5.15,0,0,1,1.13.11,2.19,2.19,0,0,1,.81.36,2,2,0,0,1,.57.66,4.78,4.78,0,0,1,.4,1l4,11h.06l4.13-11a5.86,5.86,0,0,1,.41-1,2.37,2.37,0,0,1,.51-.67,1.69,1.69,0,0,1,.69-.36,3.59,3.59,0,0,1,.93-.11h2.52a2,2,0,0,1,.66.1,1.13,1.13,0,0,1,.46.29,1.26,1.26,0,0,1,.27.47,2,2,0,0,1,.09.63Z"/><path class="cls-4" d="M771.31,344.12a5.69,5.69,0,0,1-.54,2.55,5.29,5.29,0,0,1-1.47,1.83,6.41,6.41,0,0,1-2.17,1.1,9.22,9.22,0,0,1-2.65.37,9.45,9.45,0,0,1-1.77-.16,10,10,0,0,1-1.45-.38,6.19,6.19,0,0,1-1-.46,3,3,0,0,1-.61-.43,1.06,1.06,0,0,1-.26-.53,4.84,4.84,0,0,1-.08-1c0-.29,0-.54,0-.74a2.1,2.1,0,0,1,.09-.48.53.53,0,0,1,.17-.26.41.41,0,0,1,.25-.08,1.19,1.19,0,0,1,.56.23,9.68,9.68,0,0,0,.93.52,8.44,8.44,0,0,0,1.36.52,6.46,6.46,0,0,0,1.83.24,4.23,4.23,0,0,0,1.23-.16,2.74,2.74,0,0,0,.92-.46,2,2,0,0,0,.58-.74,2.37,2.37,0,0,0,.2-1,1.72,1.72,0,0,0-.34-1.08,3.38,3.38,0,0,0-.89-.8,9.26,9.26,0,0,0-1.25-.66l-1.44-.65a13.37,13.37,0,0,1-1.44-.78,5.81,5.81,0,0,1-1.25-1,4.87,4.87,0,0,1-.89-1.43,5.16,5.16,0,0,1-.34-2,5.23,5.23,0,0,1,.49-2.33,4.79,4.79,0,0,1,1.33-1.67,5.66,5.66,0,0,1,2-1,8.6,8.6,0,0,1,2.4-.33,8.71,8.71,0,0,1,1.31.1,8.88,8.88,0,0,1,1.23.27,6.79,6.79,0,0,1,1,.38,2.38,2.38,0,0,1,.58.36,1,1,0,0,1,.19.24,1.17,1.17,0,0,1,.09.26,2.81,2.81,0,0,1,0,.41q0,.25,0,.62t0,.7a2.54,2.54,0,0,1-.07.47.56.56,0,0,1-.14.27.35.35,0,0,1-.25.08,1.19,1.19,0,0,1-.5-.2q-.34-.2-.84-.43a8,8,0,0,0-1.15-.43,5.11,5.11,0,0,0-1.44-.19,3.44,3.44,0,0,0-1.07.15,2.22,2.22,0,0,0-.76.41,1.64,1.64,0,0,0-.46.63,2.07,2.07,0,0,0-.15.78,1.73,1.73,0,0,0,.33,1.06,3.21,3.21,0,0,0,.9.8,9.63,9.63,0,0,0,1.28.66l1.45.65a14.18,14.18,0,0,1,1.45.78,5.84,5.84,0,0,1,1.27,1,4.85,4.85,0,0,1,.9,1.43A5,5,0,0,1,771.31,344.12Z"/><path class="cls-4" d="M954.45,289.68a.39.39,0,0,1-.09.26.65.65,0,0,1-.31.19,3,3,0,0,1-.57.11,9.62,9.62,0,0,1-1.82,0,3,3,0,0,1-.58-.11.65.65,0,0,1-.31-.19.39.39,0,0,1-.09-.26V272.27a.39.39,0,0,1,.09-.26.66.66,0,0,1,.31-.18,3.11,3.11,0,0,1,.58-.11,7.79,7.79,0,0,1,.9,0,8,8,0,0,1,.91,0,3,3,0,0,1,.57.11.66.66,0,0,1,.31.18.4.4,0,0,1,.09.26Z"/><path class="cls-4" d="M970.4,289.71a.39.39,0,0,1-.08.25.63.63,0,0,1-.29.18,2.45,2.45,0,0,1-.55.11c-.23,0-.52,0-.86,0s-.64,0-.88,0a2.44,2.44,0,0,1-.55-.11.62.62,0,0,1-.29-.18.38.38,0,0,1-.09-.25v-7.25a6.14,6.14,0,0,0-.13-1.45,2.89,2.89,0,0,0-.39-.91,1.75,1.75,0,0,0-.66-.58,2.08,2.08,0,0,0-.95-.21,2.37,2.37,0,0,0-1.38.5,7.47,7.47,0,0,0-1.45,1.45v8.45a.38.38,0,0,1-.09.25.63.63,0,0,1-.29.18,2.56,2.56,0,0,1-.55.11c-.23,0-.52,0-.87,0s-.64,0-.87,0a2.56,2.56,0,0,1-.55-.11.64.64,0,0,1-.29-.18.39.39,0,0,1-.08-.25V277a.44.44,0,0,1,.07-.25.51.51,0,0,1,.26-.18,2.05,2.05,0,0,1,.48-.11,6.34,6.34,0,0,1,.73,0,6.7,6.7,0,0,1,.76,0,1.72,1.72,0,0,1,.46.11.52.52,0,0,1,.24.18.44.44,0,0,1,.07.25v1.47a8.08,8.08,0,0,1,2.14-1.71,4.85,4.85,0,0,1,2.27-.57,5,5,0,0,1,2.19.43,3.83,3.83,0,0,1,1.44,1.16,4.7,4.7,0,0,1,.79,1.72,10,10,0,0,1,.24,2.37Z"/><path class="cls-4" d="M981.18,288.46a4.53,4.53,0,0,1-.08,1,1,1,0,0,1-.21.47,1.13,1.13,0,0,1-.38.24,3.59,3.59,0,0,1-.58.19,6.17,6.17,0,0,1-.73.12,7.32,7.32,0,0,1-.79,0,5.71,5.71,0,0,1-1.85-.27,3.08,3.08,0,0,1-1.3-.83,3.47,3.47,0,0,1-.75-1.42,7.45,7.45,0,0,1-.24-2v-6.51h-1.52c-.18,0-.32-.11-.41-.33a3.11,3.11,0,0,1-.14-1.12,5.84,5.84,0,0,1,0-.7,1.65,1.65,0,0,1,.11-.45.52.52,0,0,1,.18-.24.44.44,0,0,1,.25-.07h1.51v-2.84a.44.44,0,0,1,.08-.26.59.59,0,0,1,.29-.19,2.27,2.27,0,0,1,.56-.11,8.5,8.5,0,0,1,.86,0,8.66,8.66,0,0,1,.88,0,2.15,2.15,0,0,1,.55.11.65.65,0,0,1,.29.19.42.42,0,0,1,.09.26v2.84h2.76a.44.44,0,0,1,.25.07.53.53,0,0,1,.18.24,1.7,1.7,0,0,1,.11.45,5.82,5.82,0,0,1,0,.7,3.13,3.13,0,0,1-.14,1.12c-.1.22-.23.33-.41.33h-2.78v6a3,3,0,0,0,.33,1.56,1.27,1.27,0,0,0,1.17.52,2.34,2.34,0,0,0,.51,0l.41-.11.3-.11a.58.58,0,0,1,.22,0,.3.3,0,0,1,.16,0,.34.34,0,0,1,.12.2,3.08,3.08,0,0,1,.08.41A5,5,0,0,1,981.18,288.46Z"/><path class="cls-4" d="M995.16,283a1.39,1.39,0,0,1-.29,1,1,1,0,0,1-.81.31h-7.74a5.29,5.29,0,0,0,.19,1.47,2.82,2.82,0,0,0,.61,1.13,2.68,2.68,0,0,0,1.08.71,4.65,4.65,0,0,0,1.59.24,8.89,8.89,0,0,0,1.65-.14,10.89,10.89,0,0,0,1.23-.3q.52-.16.86-.3a1.61,1.61,0,0,1,.56-.14.42.42,0,0,1,.21.05.37.37,0,0,1,.14.18,1.24,1.24,0,0,1,.08.36c0,.16,0,.35,0,.59s0,.39,0,.53a3.29,3.29,0,0,1,0,.38.89.89,0,0,1-.08.26,1,1,0,0,1-.15.21,1.72,1.72,0,0,1-.51.27,8,8,0,0,1-1.05.33,14.72,14.72,0,0,1-1.47.29,12.29,12.29,0,0,1-1.77.12,9.35,9.35,0,0,1-3-.43,5.3,5.3,0,0,1-2.13-1.3,5.39,5.39,0,0,1-1.28-2.2,10.27,10.27,0,0,1-.42-3.11,9.89,9.89,0,0,1,.44-3.06,6.42,6.42,0,0,1,1.28-2.31,5.52,5.52,0,0,1,2-1.45,7.9,7.9,0,0,1,5.44,0,4.91,4.91,0,0,1,1.86,1.3,5.26,5.26,0,0,1,1.07,2,8.58,8.58,0,0,1,.34,2.48Zm-3.48-1a3.69,3.69,0,0,0-.61-2.37,2.34,2.34,0,0,0-2-.86,2.61,2.61,0,0,0-1.19.26,2.44,2.44,0,0,0-.84.69,3.13,3.13,0,0,0-.51,1,5.12,5.12,0,0,0-.21,1.26Z"/><path class="cls-4" d="M1006.28,278.18q0,.51,0,.84a2.54,2.54,0,0,1-.08.51.5.5,0,0,1-.15.26.37.37,0,0,1-.24.07.79.79,0,0,1-.26,0l-.32-.11-.39-.11a2.07,2.07,0,0,0-.47,0,1.58,1.58,0,0,0-.6.12,2.53,2.53,0,0,0-.62.38,4.56,4.56,0,0,0-.67.68,11,11,0,0,0-.75,1.05v7.92a.38.38,0,0,1-.09.25.63.63,0,0,1-.29.18,2.56,2.56,0,0,1-.55.11c-.23,0-.52,0-.87,0s-.64,0-.87,0a2.56,2.56,0,0,1-.55-.11.64.64,0,0,1-.29-.18.39.39,0,0,1-.08-.25V277a.44.44,0,0,1,.07-.25.51.51,0,0,1,.26-.18,2.05,2.05,0,0,1,.48-.11,6.34,6.34,0,0,1,.73,0,6.7,6.7,0,0,1,.76,0,1.72,1.72,0,0,1,.46.11.52.52,0,0,1,.24.18.44.44,0,0,1,.07.25v1.58a10.09,10.09,0,0,1,.94-1.18,5.32,5.32,0,0,1,.84-.73,2.64,2.64,0,0,1,.8-.38,3.08,3.08,0,0,1,.8-.11l.4,0,.44.07a3,3,0,0,1,.4.11.79.79,0,0,1,.25.14.45.45,0,0,1,.11.16,1.17,1.17,0,0,1,.06.24,3.44,3.44,0,0,1,0,.45C1006.27,277.57,1006.28,277.84,1006.28,278.18Z"/><path class="cls-4" d="M1020.44,277s0,.1,0,.17a2.09,2.09,0,0,1,0,.22c0,.08,0,.17-.06.28s-.05.22-.09.36l-3.82,11.5a1.13,1.13,0,0,1-.19.39.81.81,0,0,1-.4.24,3.34,3.34,0,0,1-.75.11q-.48,0-1.25,0t-1.23,0a3.45,3.45,0,0,1-.75-.12.79.79,0,0,1-.39-.24,1.11,1.11,0,0,1-.19-.38l-3.82-11.5q-.08-.29-.13-.51a2.69,2.69,0,0,1-.06-.33c0-.07,0-.13,0-.19a.41.41,0,0,1,.08-.25.58.58,0,0,1,.28-.18,2.28,2.28,0,0,1,.55-.1q.35,0,.88,0t.94,0a3.09,3.09,0,0,1,.56.1.54.54,0,0,1,.29.19,1.11,1.11,0,0,1,.14.29l2.89,9.34.08.36.09-.36,2.85-9.34a.78.78,0,0,1,.14-.29.58.58,0,0,1,.29-.19,2.87,2.87,0,0,1,.53-.1,8.76,8.76,0,0,1,.88,0c.35,0,.64,0,.86,0a2,2,0,0,1,.52.1.52.52,0,0,1,.26.18A.43.43,0,0,1,1020.44,277Z"/><path class="cls-4" d="M1026.41,272.69a2,2,0,0,1-.44,1.5,3.49,3.49,0,0,1-3.27,0,2,2,0,0,1-.42-1.44,2.06,2.06,0,0,1,.43-1.5,3.44,3.44,0,0,1,3.27,0A2,2,0,0,1,1026.41,272.69Zm-.27,17a.38.38,0,0,1-.09.25.63.63,0,0,1-.29.18,2.56,2.56,0,0,1-.55.11c-.23,0-.52,0-.87,0s-.64,0-.87,0a2.56,2.56,0,0,1-.55-.11.64.64,0,0,1-.29-.18.39.39,0,0,1-.08-.25V277a.39.39,0,0,1,.08-.25.68.68,0,0,1,.29-.18,2.4,2.4,0,0,1,.55-.12,8.81,8.81,0,0,1,1.74,0,2.4,2.4,0,0,1,.55.12.67.67,0,0,1,.29.18.39.39,0,0,1,.09.25Z"/><path class="cls-4" d="M1041.46,283a1.39,1.39,0,0,1-.29,1,1,1,0,0,1-.81.31h-7.74a5.29,5.29,0,0,0,.19,1.47,2.82,2.82,0,0,0,.61,1.13,2.68,2.68,0,0,0,1.08.71,4.65,4.65,0,0,0,1.59.24,8.89,8.89,0,0,0,1.65-.14,10.89,10.89,0,0,0,1.23-.3q.52-.16.86-.3a1.61,1.61,0,0,1,.56-.14.42.42,0,0,1,.21.05.37.37,0,0,1,.14.18,1.24,1.24,0,0,1,.08.36c0,.16,0,.35,0,.59s0,.39,0,.53a3.29,3.29,0,0,1,0,.38.89.89,0,0,1-.08.26,1,1,0,0,1-.15.21,1.72,1.72,0,0,1-.51.27,8,8,0,0,1-1.05.33,14.72,14.72,0,0,1-1.47.29,12.29,12.29,0,0,1-1.77.12,9.35,9.35,0,0,1-3-.43,5.3,5.3,0,0,1-2.13-1.3,5.39,5.39,0,0,1-1.28-2.2,10.27,10.27,0,0,1-.42-3.11,9.89,9.89,0,0,1,.44-3.06,6.42,6.42,0,0,1,1.28-2.31,5.52,5.52,0,0,1,2-1.45,7.9,7.9,0,0,1,5.44,0,4.91,4.91,0,0,1,1.86,1.3,5.26,5.26,0,0,1,1.07,2,8.58,8.58,0,0,1,.34,2.48Zm-3.48-1a3.69,3.69,0,0,0-.61-2.37,2.34,2.34,0,0,0-2-.86,2.61,2.61,0,0,0-1.19.26,2.44,2.44,0,0,0-.84.69,3.13,3.13,0,0,0-.51,1,5.12,5.12,0,0,0-.21,1.26Z"/><path class="cls-4" d="M1063.73,277a2.14,2.14,0,0,1,0,.38c0,.15-.08.37-.16.66l-3.39,11.5a1.2,1.2,0,0,1-.19.39.75.75,0,0,1-.35.24,2.53,2.53,0,0,1-.67.11c-.29,0-.67,0-1.13,0s-.85,0-1.14,0a3,3,0,0,1-.69-.12.74.74,0,0,1-.36-.24,1,1,0,0,1-.17-.38l-2.14-7.72,0-.13,0,.13-2,7.72a1.11,1.11,0,0,1-.16.39.71.71,0,0,1-.36.24,2.88,2.88,0,0,1-.7.11q-.44,0-1.14,0t-1.15,0a2.92,2.92,0,0,1-.68-.12.74.74,0,0,1-.36-.24,1,1,0,0,1-.17-.38l-3.36-11.5a4.8,4.8,0,0,1-.16-.65,2.74,2.74,0,0,1,0-.39.41.41,0,0,1,.08-.25.54.54,0,0,1,.29-.17,2.7,2.7,0,0,1,.56-.09c.23,0,.53,0,.88,0s.69,0,.93,0a2.33,2.33,0,0,1,.56.1.53.53,0,0,1,.28.19,1,1,0,0,1,.12.29l2.52,9.34,0,.17,0-.17,2.37-9.34a.81.81,0,0,1,.14-.29.62.62,0,0,1,.28-.19,2,2,0,0,1,.52-.1q.34,0,.86,0a8.36,8.36,0,0,1,.86,0,2.71,2.71,0,0,1,.52.1.54.54,0,0,1,.27.17.81.81,0,0,1,.12.25l2.54,9.41,0,.16,0-.17,2.42-9.34a.69.69,0,0,1,.11-.29.57.57,0,0,1,.29-.19,2.27,2.27,0,0,1,.54-.1c.23,0,.52,0,.87,0s.64,0,.86,0a2.38,2.38,0,0,1,.53.09.49.49,0,0,1,.26.17A.44.44,0,0,1,1063.73,277Z"/><path class="cls-4" d="M1071.52,288.33a4.45,4.45,0,0,1-.09,1,1.24,1.24,0,0,1-.95,1,3.69,3.69,0,0,1-1,.11,3.77,3.77,0,0,1-1-.11,1.3,1.3,0,0,1-.62-.35,1.36,1.36,0,0,1-.32-.64,4.38,4.38,0,0,1-.09-1,4.56,4.56,0,0,1,.09-1,1.41,1.41,0,0,1,.32-.66,1.27,1.27,0,0,1,.62-.36,3.77,3.77,0,0,1,1-.11,3.7,3.7,0,0,1,1,.11,1.32,1.32,0,0,1,.62.36,1.39,1.39,0,0,1,.33.66A4.63,4.63,0,0,1,1071.52,288.33Zm-.44-4.18a.59.59,0,0,1-.09.26.53.53,0,0,1-.25.19,1.9,1.9,0,0,1-.48.12,6.6,6.6,0,0,1-1.5,0,1.89,1.89,0,0,1-.48-.12.53.53,0,0,1-.25-.19.59.59,0,0,1-.09-.26l-.37-12.94a.63.63,0,0,1,.08-.33.62.62,0,0,1,.31-.23,2.24,2.24,0,0,1,.6-.14,8.72,8.72,0,0,1,.95,0,7.29,7.29,0,0,1,.94,0,2.44,2.44,0,0,1,.59.14.7.7,0,0,1,.31.23.55.55,0,0,1,.09.32Z"/><line class="cls-9" x1="114.5" y1="150.55" x2="227.06" y2="150.21"/><polygon class="cls-7" points="222.72 165.18 248.58 150.15 222.63 135.27 222.72 165.18"/><use width="521.7" height="844.67" transform="translate(251.44 39.41) scale(0.26 0.26)" xlink:href="#Confirm_page-5"/><use width="796.95" height="505.11" transform="translate(494.17 175.61) scale(0.13 0.13)" xlink:href="#Envelope-2"/></svg>